<svg xml:space="preserve" width="2em" height="2em" fill="currentColor" fill-rule="evenodd" stroke-linejoin="round" stroke-miterlimit="2" clip-rule="evenodd" viewBox="0 0 494 494" xmlns="http://www.w3.org/2000/svg"><path fill-rule="nonzero" d="M414.3 401.3c-25.9 8.7-67 14.3-113.5 14.3-46.3 0-87.4-5.6-113.2-14.2h-.1L159.3 437v19.4l-.2 1.9c0 19.7 63.5 35.6 141.7 35.6 78 0 141.4-15.8 141.8-35.4v-.6l.2-.5v-28c-3.9-4-25.7-26.4-28.2-27.9zM159.2 55.2v28c3.2 5.5 26.6 46 28.2 48.4l4.2 1.9 4.4 1.7q2.3 1 4.7 1.7 2.4.9 5 1.6l5 1.6q2.6.8 5.4 1.4t5.6 1.4 5.7 1.2l6 1.2 6 1a443 605.4 0 0 0 12.8 2 486 664.1 0 0 0 13.3 1.4 519 709.2 0 0 0 13.9 1l7 .2a564 770.7 0 0 0 21.8.2 564 770.7 0 0 0 14.3-.5 529 722.9 0 0 0 20.6-1.6 486 664.1 0 0 0 13-1.6l6.3-1a407 556.2 0 0 0 12-2.3l5.8-1.2 5.5-1.4a292 399 0 0 0 5.4-1.4l5.1-1.6 5-1.6a211 288.3 0 0 0 4.7-1.7l4.4-1.7 4.2-1.9c2.5-2 24.3-32.6 28.2-38V55.2c-2.3 26.3-64.9 47.3-141.8 47.3-76.8 0-139.4-21-141.6-47.3z"/><path d="M301 .2c77.7 0 141.7 21.2 141.7 47S378.7 94 300.9 94 159.2 72.8 159.2 47.1 223.2.2 301 .2m0 6.8-19.5 31.4-68.5-.8 56.3 18.7-22.7 30.9L301 67.3l54.4 19.9-22.7-31L389 37.7l-68.5.8zm-99.6 275.3a16.5 16.5 0 0 1-9.4-19.6 15.3 15.3 0 0 1 20.6-10.4l3.2 1.1 3.3 1.2 3.6 1.1q1.9.6 3.9 1l8.2 2.1 4.5 1 4.6.8 9.7 1.6 5 .6 5.3.6 5.4.6 5.5.4 5.6.4 5.7.3 11.7.4h12l11.7-.4 5.7-.3 11.1-.8 5.4-.6 10.3-1.2 9.8-1.6 4.6-.9 4.4-.9 4.2-1 7.9-2 7-2.4 3-1.1c8.3-3.3 18 .7 20.7 10.4a16.5 16.5 0 0 1-9.4 19.6l-4 1.5-4.2 1.4-4.4 1.4-9.3 2.5-5 1.1q-2.4.6-5 1l-10.5 2-11 1.5-5.8.7-5.9.6-6 .5-12.2.7-6.3.3h-6.3l-6.5.1a430 430 0 0 1-19-.4l-12.3-.7-6-.5-11.6-1.3-11-1.6-10.6-1.8-5-1.1-5-1.1-9.2-2.5-4.4-1.4-4.3-1.4zm-5.9-126c4.2-2.9 9.6-3.4 14.5-1.5l3 1.2 3.4 1.1 3.6 1.1 3.8 1 4 1.1 4.3 1 4.4 1 4.6.8 4.8.8 10 1.4q2.6.4 5.3.6l5.3.6 5.5.4 11.3.7 17.7.4h6l6-.2 5.7-.2 5.7-.3 5.6-.4 5.5-.4 5.4-.6 10.3-1.2 5-.8 4.7-.8 4.6-.9 4.5-.9 4.2-1 4-1 3.8-1 3.6-1.2 3.4-1.1 3.1-1.2c8.4-3.3 18.2.8 21 10.6 2.4 8.4-2.4 17-9.5 19.9l-4.1 1.5-4.2 1.4-4.4 1.4-4.6 1.3-4.7 1.2-5 1.1-5 1.1-5.2 1-5.3.9-5.5.8-5.6.8-11.6 1.2-12 1-6.3.3-12.6.3h-13l-6.3-.1-6.3-.2-6.1-.4-12.1-.9-11.6-1.2-12-1.7zm65 57.9 8.8.9 5.5.5 11.3.6 5.8.3h23.8l17.1-1 5.5-.4 10.6-1.1 5-.7 5-.8 4.8-.8 4.6-.9 8.7-1.9 4-1 3.8-1 3.6-1.2 3.4-1.1 3-1.2c8.5-3.3 18.2.8 21 10.6 2.5 8.4-2.3 17-9.5 19.9l-4 1.5-4.3 1.5-4.4 1.3-4.5 1.3-4.8 1.2-4.9 1.2-5 1-5.2 1-5.3.9-11.1 1.6-5.8.6-5.8.6a396 396 0 0 1-18.3 1.3l-6.3.2-6.3.2h-10.5zm105.9 94.4 1.4-.3 8.7-1.9 7.8-2 7-2.3 3.1-1.2c8.3-3.3 17.9.8 20.7 10.4a16.5 16.5 0 0 1-9.4 19.6l-4 1.5-4.3 1.4-2 .7zM335.5 345h-1l-12.3.8-6.2.3-6.4.1a430 430 0 0 1-25.5-.4l-12.3-.7-6-.5-11.6-1.3-11-1.5-10.6-2-5-1-4.9-1.1-9.3-2.5-4.4-1.4-4.2-1.4-4-1.5a16.5 16.5 0 0 1-9.5-19.6A15.3 15.3 0 0 1 212 301l3 1.2 3.5 1.1 3.6 1.1 3.8 1.1 8.3 2 4.4 1 4.6.8 9.7 1.6 5.1.7 5.3.6 5.3.5 5.5.5 5.6.3 5.7.3 10.4.4zm52.1 40.7-3.4.9-4.9 1.1-5 1-10.6 2-11 1.5-5.8.7-5.8.6-6 .5-6.1.4-6.2.3-12.6.4h-6.5L291 395l-6.3-.3-6.2-.3-12-1-11.6-1.2a316 316 0 0 1-16.5-2.5l-10.2-2-9.6-2.3-4.6-1.3-8.6-2.8-4.1-1.6a17 17 0 0 1-9.6-19.8c2.9-9.9 12.6-14 21-10.6l3.1 1.1 3.4 1.2 3.6 1 3.8 1.2 4 1 4.3 1 9 1.8 4.8.8 10 1.4 10.6 1.1 5.5.5 17.1.9 6 .1a395 395 0 0 0 17.8-.1l11.5-.5 11.1-.9 10.6-1.1 4.8-.6z"/><path d="M42.2 68.9c5.1-6 12.2-8.3 21.2-5.4 7.4 2.5 18.5 11.6 30 21v.1l24.6 20.6.1.2L418.2 373l40.8 46-51.8-35.2L91.3 137.3l-.2-.1-26.1-22c-10.3-8.4-21-17.6-24.5-24.6-4.3-8.3-3.3-15.6 1.7-21.6m20.4 18.3c-2 2.6 4.3 16 13.2 23.7l29.6 25.7c8.9 7.6 28.1 13.6 30.2 11S124.7 127 116 119.4L86.2 93.7c-8.8-7.6-21.4-9-23.6-6.5"/><path d="M163.5 68.5a3 3 0 0 1 2.8 2.8 3 3 0 0 1-2.8 2.8c-18.2 0-31 3.6-39.9 10.2a50 50 0 0 0-18.1 32.4 259 259 0 0 0-3 47.2c-.2 49.8-.5 104-63.9 122a2.8 2.8 0 0 1-1.5-5.5c60.2-17 59.6-69.1 59.8-116.5 0-17.3.2-34 3-48.3 3-15 8.9-27.5 20.4-36 9.7-7 23.5-11.2 43.2-11.1"/></svg>