<?xml version="1.0" encoding="UTF-8" standalone="no"?>
<!DOCTYPE svg PUBLIC "-//W3C//DTD SVG 1.1//EN" "http://www.w3.org/Graphics/SVG/1.1/DTD/svg11.dtd">
<svg width="100%" height="100%" viewBox="0 0 494 494" version="1.1" xmlns="http://www.w3.org/2000/svg" xmlns:xlink="http://www.w3.org/1999/xlink" xml:space="preserve" xmlns:serif="http://www.serif.com/" style="fill-rule:evenodd;clip-rule:evenodd;stroke-linejoin:round;stroke-miterlimit:2;">
    <g id="Layer-1" serif:id="Layer 1" transform="matrix(1,0,0,1,17.4737,-143.799)">
        <path id="path16595-9" d="M396.83,545.143C370.976,553.809 329.78,559.419 283.37,559.419C237.071,559.419 195.965,553.836 170.1,545.204C170.062,545.215 170.021,545.227 169.984,545.241C168.466,547.049 145.023,576.692 141.827,580.732L141.827,600.121C141.702,600.734 141.638,601.352 141.638,601.973C141.638,621.65 205.094,637.603 283.37,637.603C361.39,637.603 424.686,621.755 425.101,602.166C425.102,602.102 425.175,601.809 425.205,601.645C425.263,601.331 425.292,601.143 425.292,601.143L425.292,573.095C421.451,569.13 399.625,546.733 397.135,545.241C397.036,545.207 396.929,545.175 396.83,545.143Z" style="fill-rule:nonzero;"/>
        <g id="path1120" transform="matrix(1,0,0,1.36648,2.30926e-14,-53.8891)">
            <path d="M141.732,185.101L141.732,205.512C144.928,209.552 168.372,239.195 169.89,241.003C171.25,241.461 172.652,241.91 174.097,242.35C175.541,242.79 177.028,243.22 178.553,243.642C180.078,244.063 181.642,244.476 183.245,244.879C184.848,245.282 186.49,245.675 188.168,246.059C189.846,246.442 191.56,246.816 193.31,247.179C195.06,247.542 196.845,247.895 198.664,248.237C200.483,248.579 202.336,248.91 204.221,249.23C206.106,249.55 208.024,249.86 209.972,250.157C211.92,250.455 213.898,250.74 215.906,251.014C217.914,251.288 219.952,251.552 222.018,251.802C224.083,252.052 226.176,252.29 228.296,252.516C230.415,252.741 232.562,252.953 234.732,253.153C236.903,253.353 239.099,253.54 241.318,253.714C243.537,253.887 245.779,254.046 248.043,254.193C250.308,254.339 252.594,254.473 254.9,254.591C257.207,254.71 259.534,254.815 261.88,254.905C264.226,254.995 266.591,255.07 268.973,255.13C271.355,255.191 273.756,255.237 276.171,255.268C278.587,255.299 281.019,255.315 283.465,255.315C285.911,255.315 288.343,255.299 290.758,255.268C293.174,255.237 295.574,255.191 297.957,255.13C300.339,255.07 302.703,254.995 305.049,254.905C307.395,254.815 309.723,254.71 312.029,254.591C314.336,254.473 316.622,254.339 318.886,254.193C321.151,254.046 323.392,253.887 325.611,253.714C327.83,253.54 330.026,253.353 332.197,253.153C334.368,252.953 336.514,252.741 338.634,252.516C340.753,252.29 342.847,252.052 344.912,251.802C346.977,251.552 349.015,251.288 351.023,251.014C353.032,250.74 355.009,250.455 356.958,250.157C358.906,249.86 360.823,249.55 362.709,249.23C364.594,248.91 366.447,248.579 368.266,248.237C370.085,247.895 371.87,247.542 373.62,247.179C375.37,246.816 377.084,246.442 378.762,246.059C380.44,245.675 382.082,245.282 383.685,244.879C385.288,244.476 386.852,244.063 388.377,243.642C389.902,243.22 391.389,242.79 392.833,242.35C394.277,241.91 395.68,241.461 397.04,241.003C399.53,239.511 421.356,217.114 425.197,213.15L425.197,185.101L425.131,185.101C422.93,204.295 360.349,219.686 283.465,219.686C206.58,219.686 143.999,204.295 141.798,185.101L141.732,185.101Z" style="fill:rgb(1,1,1);fill-rule:nonzero;"/>
        </g>
        <g id="path6376" transform="matrix(1,0,0,1,-19.2718,143.996)">
            <path d="M302.737,0C380.489,0 444.469,21.176 444.469,46.911C444.469,72.646 380.489,93.823 302.737,93.823C224.985,93.823 161.004,72.646 161.004,46.911C161.004,21.176 224.985,0 302.737,0ZM302.737,6.817L283.15,38.234L214.703,37.445L271.044,56.075L248.329,87.005L302.737,67.101L357.145,87.005L334.429,56.075L390.769,37.445L322.323,38.234L302.737,6.817Z"/>
        </g>
        <g transform="matrix(0.852274,0,0,1,56.5459,259.924)">
            <path d="M149.33,166.136C141.091,163.367 135.549,154.843 138.321,146.598C141.575,136.916 152.845,132.897 162.516,136.151C163.701,136.549 164.925,136.941 166.184,137.324C167.466,137.715 168.785,138.096 170.138,138.471C171.511,138.85 172.917,139.221 174.359,139.583L174.364,139.585C175.826,139.952 177.325,140.311 178.855,140.661C180.401,141.013 181.978,141.359 183.59,141.693C185.217,142.03 186.878,142.358 188.569,142.676C190.269,142.996 192,143.305 193.762,143.604L193.77,143.605C195.541,143.906 197.343,144.197 199.172,144.476C201.015,144.757 202.886,145.027 204.785,145.287C206.687,145.547 208.619,145.797 210.576,146.033L210.585,146.034C212.548,146.273 214.539,146.499 216.555,146.713C218.575,146.928 220.622,147.13 222.691,147.32L222.698,147.321C224.773,147.512 226.872,147.691 228.994,147.858C231.119,148.023 233.265,148.176 235.433,148.316L235.44,148.316C237.612,148.457 239.805,148.584 242.018,148.698L242.026,148.699C244.238,148.813 246.471,148.914 248.72,148.999L248.727,149C250.983,149.087 253.257,149.158 255.548,149.217C257.842,149.275 260.153,149.32 262.48,149.35C264.805,149.38 267.147,149.394 269.502,149.394C271.86,149.394 274.204,149.378 276.532,149.35C278.856,149.32 281.165,149.275 283.456,149.217C285.747,149.158 288.021,149.087 290.275,149L290.283,148.999C292.534,148.914 294.766,148.813 296.979,148.699L296.986,148.698C299.199,148.584 301.391,148.457 303.563,148.316C305.734,148.176 307.883,148.023 310.009,147.858C312.13,147.691 314.229,147.512 316.305,147.321L316.313,147.32C318.383,147.13 320.429,146.928 322.449,146.713C324.465,146.499 326.456,146.273 328.42,146.034L328.428,146.033C330.385,145.797 332.317,145.547 334.219,145.287C336.118,145.027 337.989,144.757 339.832,144.476C341.661,144.197 343.463,143.906 345.234,143.605L345.24,143.604C347.002,143.305 348.734,142.996 350.435,142.676C352.127,142.358 353.786,142.03 355.413,141.693C357.025,141.359 358.603,141.013 360.149,140.66C361.681,140.31 363.179,139.952 364.642,139.584L364.645,139.583C366.086,139.222 367.492,138.851 368.863,138.471C370.217,138.096 371.538,137.715 372.82,137.324C374.08,136.94 375.304,136.548 376.475,136.155C386.158,132.897 397.424,136.912 400.682,146.595L400.684,146.602C403.453,154.845 397.914,163.367 389.671,166.136C388.135,166.653 386.551,167.16 384.919,167.657C383.314,168.146 381.661,168.625 379.966,169.094L379.954,169.098C378.282,169.559 376.566,170.013 374.808,170.455L374.796,170.458C373.056,170.895 371.273,171.322 369.451,171.738C367.641,172.152 365.792,172.556 363.904,172.947L363.898,172.949C362.028,173.336 360.12,173.713 358.176,174.079L358.17,174.08C356.234,174.444 354.26,174.797 352.253,175.138L352.247,175.139C350.252,175.477 348.223,175.804 346.162,176.119C344.108,176.433 342.023,176.733 339.906,177.023L339.898,177.024C337.788,177.312 335.646,177.589 333.475,177.852C331.308,178.115 329.112,178.365 326.888,178.6C324.674,178.836 322.43,179.058 320.161,179.267C317.897,179.476 315.605,179.671 313.291,179.852L313.283,179.853C310.975,180.033 308.642,180.198 306.286,180.351L306.279,180.352C303.925,180.504 301.547,180.643 299.149,180.766C296.751,180.89 294.331,180.998 291.893,181.091C289.458,181.185 287.003,181.263 284.53,181.326C282.059,181.389 279.569,181.437 277.063,181.469L277.056,181.469C274.555,181.5 272.035,181.518 269.502,181.518C266.966,181.518 264.445,181.501 261.94,181.469C259.434,181.437 256.945,181.389 254.474,181.326C252.001,181.263 249.546,181.185 247.111,181.091C244.672,180.998 242.252,180.89 239.855,180.766C237.457,180.643 235.08,180.504 232.725,180.352L232.717,180.351C230.361,180.198 228.029,180.033 225.72,179.853L225.712,179.852C223.398,179.671 221.107,179.476 218.844,179.267C216.574,179.058 214.331,178.836 212.114,178.6C209.892,178.365 207.696,178.115 205.529,177.852C203.358,177.589 201.216,177.312 199.106,177.024L199.099,177.023C196.981,176.734 194.897,176.433 192.842,176.119C190.781,175.804 188.752,175.477 186.757,175.139L186.751,175.138C184.744,174.797 182.77,174.444 180.834,174.08L180.828,174.079C178.884,173.713 176.976,173.336 175.106,172.949L175.1,172.947C173.213,172.556 171.364,172.152 169.554,171.738C167.731,171.322 165.948,170.895 164.208,170.458L164.198,170.456C162.438,170.013 160.723,169.56 159.05,169.098L159.038,169.094C157.343,168.625 155.69,168.146 154.085,167.657C152.452,167.16 150.868,166.653 149.33,166.136Z"/>
        </g>
        <g transform="matrix(1,0,0,1,-17.4737,143.799)">
            <path d="M195.435,156.214C199.615,153.444 204.975,152.863 209.866,154.794C210.871,155.19 211.908,155.579 212.975,155.96C214.063,156.349 215.184,156.73 216.333,157.103C217.504,157.483 218.704,157.854 219.934,158.217C221.176,158.584 222.448,158.94 223.748,159.288L223.759,159.291C225.072,159.644 226.413,159.987 227.782,160.32C229.165,160.657 230.576,160.984 232.014,161.301L232.019,161.302C233.467,161.622 234.943,161.931 236.444,162.23C237.953,162.531 239.488,162.821 241.048,163.101L241.053,163.102C242.619,163.383 244.208,163.651 245.821,163.91C247.444,164.17 249.09,164.42 250.759,164.657C252.432,164.895 254.129,165.121 255.847,165.335C257.567,165.55 259.31,165.752 261.072,165.942L261.078,165.942C262.844,166.133 264.631,166.313 266.436,166.478L266.442,166.479C268.251,166.645 270.078,166.797 271.922,166.936L271.929,166.937C273.779,167.078 275.647,167.206 277.531,167.32C279.418,167.433 281.323,167.534 283.242,167.621C285.165,167.707 287.104,167.778 289.057,167.837C291.01,167.896 292.977,167.94 294.958,167.97C296.938,168 298.932,168.015 300.938,168.015C302.945,168.015 304.941,167.999 306.923,167.97C308.902,167.94 310.868,167.896 312.82,167.837L312.826,167.837C314.777,167.779 316.714,167.707 318.634,167.621C320.554,167.534 322.458,167.433 324.346,167.32C326.23,167.206 328.097,167.078 329.947,166.937L329.954,166.936C331.799,166.797 333.625,166.645 335.433,166.479L335.44,166.478C337.245,166.313 339.032,166.133 340.798,165.942L340.805,165.942C342.567,165.752 344.31,165.55 346.03,165.335C347.747,165.121 349.442,164.895 351.115,164.657L351.121,164.656C352.789,164.419 354.434,164.169 356.056,163.91C357.669,163.651 359.258,163.383 360.824,163.102L360.829,163.101C362.388,162.821 363.923,162.531 365.432,162.231C366.933,161.931 368.409,161.622 369.857,161.302L369.864,161.301C371.301,160.984 372.711,160.657 374.094,160.32C375.463,159.987 376.804,159.644 378.117,159.291L378.13,159.288C379.43,158.94 380.702,158.583 381.944,158.217C383.173,157.854 384.371,157.483 385.541,157.103L385.542,157.103C386.692,156.73 387.813,156.349 388.901,155.96C389.97,155.578 391.007,155.189 392.008,154.794C400.404,151.48 410.177,155.563 413.002,165.414L413.004,165.421C415.403,173.802 410.606,182.462 403.462,185.282L403.453,185.286C402.142,185.802 400.789,186.311 399.397,186.809L399.39,186.811C398.021,187.299 396.613,187.778 395.169,188.247L395.167,188.248C393.737,188.712 392.269,189.166 390.766,189.61L390.764,189.611C389.276,190.05 387.751,190.477 386.193,190.895C384.649,191.31 383.072,191.714 381.461,192.106C379.861,192.496 378.229,192.874 376.565,193.24C374.914,193.605 373.231,193.957 371.519,194.299C369.816,194.638 368.082,194.967 366.322,195.282L366.314,195.284C364.562,195.597 362.784,195.898 360.978,196.187C359.178,196.476 357.351,196.753 355.499,197.017L355.492,197.018C353.647,197.279 351.778,197.529 349.884,197.765L349.879,197.766C347.99,198.001 346.077,198.223 344.143,198.432C342.211,198.641 340.255,198.837 338.28,199.018C336.308,199.199 334.315,199.365 332.303,199.518C330.296,199.67 328.27,199.808 326.225,199.932L326.219,199.933C324.176,200.056 322.115,200.164 320.037,200.258L320.031,200.259C317.956,200.351 315.864,200.429 313.758,200.492C311.65,200.556 309.525,200.604 307.387,200.636L307.38,200.636C305.247,200.667 303.099,200.684 300.938,200.684C298.776,200.684 296.625,200.668 294.489,200.636C292.351,200.604 290.227,200.556 288.119,200.492C286.011,200.429 283.921,200.351 281.846,200.259L281.84,200.258C279.761,200.164 277.7,200.056 275.658,199.933L275.651,199.932C273.607,199.808 271.581,199.67 269.573,199.518C267.561,199.365 265.569,199.199 263.596,199.018C261.621,198.837 259.666,198.641 257.734,198.432C255.799,198.223 253.887,198.001 251.998,197.766L251.991,197.765C250.096,197.528 248.224,197.279 246.378,197.017C244.526,196.753 242.699,196.476 240.899,196.187C240.63,196.144 240.361,196.101 240.093,196.057C224.378,182.037 209.242,168.533 195.435,156.214Z"/>
        </g>
        <g transform="matrix(1,0,0,1,-17.4737,143.799)">
            <path d="M260.391,214.167C261.535,214.303 262.688,214.433 263.849,214.559C265.616,214.75 267.404,214.929 269.21,215.095C271.022,215.261 272.852,215.413 274.7,215.553C276.55,215.694 278.418,215.821 280.302,215.935C282.19,216.049 284.096,216.149 286.016,216.236C287.936,216.323 289.872,216.394 291.821,216.452L291.828,216.453C293.779,216.511 295.746,216.556 297.725,216.586C299.707,216.615 301.702,216.63 303.709,216.63C305.717,216.63 307.714,216.614 309.697,216.586C311.675,216.556 313.64,216.511 315.591,216.453L315.597,216.452C317.547,216.394 319.482,216.323 321.402,216.236C323.322,216.149 325.228,216.049 327.117,215.935C329.001,215.821 330.868,215.694 332.718,215.553C334.566,215.413 336.396,215.261 338.207,215.095C340.014,214.929 341.801,214.75 343.568,214.559C345.334,214.368 347.078,214.166 348.801,213.951C350.519,213.737 352.215,213.51 353.889,213.273C355.555,213.035 357.199,212.787 358.82,212.526L358.826,212.525C360.442,212.267 362.033,211.997 363.601,211.717C365.159,211.438 366.693,211.147 368.2,210.846L368.206,210.845C369.705,210.547 371.18,210.238 372.627,209.919C374.065,209.601 375.475,209.274 376.858,208.937L376.863,208.936C378.235,208.602 379.579,208.258 380.894,207.906C382.198,207.556 383.473,207.198 384.718,206.831L384.72,206.831C385.947,206.469 387.144,206.098 388.311,205.719L388.313,205.718C389.462,205.345 390.584,204.965 391.672,204.576C392.741,204.194 393.778,203.804 394.784,203.408L394.788,203.406C403.181,200.099 412.949,204.18 415.773,214.029L415.775,214.036C418.175,222.419 413.371,231.084 406.226,233.9C404.914,234.418 403.562,234.926 402.169,235.424C400.796,235.914 399.383,236.394 397.934,236.864C396.503,237.329 395.035,237.784 393.531,238.227C392.044,238.666 390.519,239.094 388.962,239.512L388.958,239.513C387.415,239.926 385.839,240.331 384.23,240.722L384.225,240.724C382.627,241.112 380.997,241.49 379.336,241.856C377.685,242.22 376.002,242.573 374.29,242.914C372.587,243.254 370.853,243.582 369.093,243.897C367.341,244.212 365.562,244.512 363.756,244.802L363.749,244.804C361.949,245.092 360.122,245.369 358.27,245.632C356.423,245.895 354.552,246.144 352.656,246.38C350.765,246.617 348.85,246.838 346.914,247.047C344.983,247.256 343.028,247.452 341.054,247.634L341.048,247.634C339.078,247.814 337.087,247.98 335.077,248.133C333.067,248.286 331.037,248.425 328.989,248.548C326.946,248.671 324.883,248.781 322.805,248.874C320.728,248.968 318.634,249.045 316.525,249.108C314.418,249.171 312.295,249.219 310.158,249.251L310.151,249.251C308.018,249.282 305.87,249.299 303.709,249.299C302.384,249.299 301.064,249.293 299.748,249.281C286.727,237.664 273.473,225.839 260.391,214.167Z"/>
        </g>
        <g>
            <g transform="matrix(1,0,0,1,-17.4737,143.799)">
                <path d="M366.264,308.626C366.743,308.533 367.221,308.44 367.695,308.345L367.7,308.344C369.202,308.045 370.678,307.736 372.127,307.416C373.569,307.098 374.984,306.77 376.371,306.433C377.744,306.099 379.089,305.753 380.406,305.4C381.712,305.05 382.989,304.692 384.236,304.324L384.238,304.324C385.467,303.962 386.665,303.591 387.833,303.211C388.987,302.836 390.113,302.455 391.205,302.064C392.28,301.68 393.323,301.288 394.321,300.895C402.573,297.637 412.175,301.652 414.952,311.335L414.954,311.342C417.313,319.585 412.593,328.107 405.567,330.876C404.258,331.393 402.908,331.9 401.518,332.397C400.149,332.886 398.741,333.365 397.296,333.834L397.286,333.838C396.615,334.055 395.935,334.271 395.247,334.485C386.812,326.959 377.019,318.221 366.264,308.626Z"/>
            </g>
            <g transform="matrix(1,0,0,1,-17.4737,143.799)">
                <path d="M335.491,345.015C335.162,345.041 334.831,345.066 334.501,345.091L334.494,345.092C332.488,345.244 330.462,345.383 328.417,345.506C326.374,345.63 324.312,345.738 322.234,345.831C320.158,345.925 318.066,346.003 315.958,346.066C313.853,346.129 311.73,346.177 309.595,346.209L309.589,346.209C307.457,346.24 305.31,346.258 303.15,346.258C300.989,346.258 298.84,346.241 296.705,346.209C294.57,346.177 292.448,346.129 290.343,346.066C288.234,346.003 286.143,345.925 284.067,345.831C281.988,345.738 279.926,345.63 277.883,345.506C275.839,345.383 273.813,345.244 271.806,345.092L271.799,345.091C269.792,344.938 267.804,344.773 265.836,344.593L265.83,344.592C263.857,344.411 261.905,344.216 259.976,344.007C258.041,343.798 256.129,343.576 254.24,343.34C252.346,343.105 250.475,342.855 248.628,342.592C246.778,342.329 244.952,342.052 243.153,341.764L243.148,341.763C241.343,341.474 239.566,341.173 237.815,340.859C236.058,340.544 234.329,340.217 232.629,339.879L232.624,339.878C230.913,339.537 229.231,339.184 227.581,338.82L227.576,338.819C225.919,338.453 224.293,338.076 222.699,337.689L222.694,337.687C221.085,337.296 219.51,336.892 217.967,336.478C216.414,336.062 214.894,335.635 213.411,335.198L213.403,335.196C211.903,334.753 210.441,334.3 209.015,333.838L209.005,333.834C207.56,333.365 206.151,332.886 204.783,332.397C203.392,331.9 202.042,331.393 200.731,330.876C193.709,328.107 188.986,319.583 191.348,311.338C194.121,301.656 203.727,297.637 211.969,300.891C212.979,301.289 214.022,301.681 215.095,302.064C216.187,302.455 217.312,302.836 218.465,303.211C219.635,303.59 220.834,303.961 222.063,304.324L222.067,304.325C223.313,304.692 224.59,305.051 225.895,305.401C227.212,305.753 228.556,306.099 229.929,306.433C231.317,306.77 232.732,307.098 234.173,307.416C235.622,307.736 237.098,308.045 238.599,308.344L238.606,308.345C240.115,308.646 241.651,308.937 243.21,309.216C244.781,309.497 246.375,309.767 247.993,310.027C249.615,310.287 251.261,310.537 252.929,310.773L252.937,310.774C254.61,311.013 256.307,311.239 258.025,311.453C259.747,311.668 261.491,311.87 263.254,312.06L263.261,312.061C265.029,312.252 266.818,312.431 268.626,312.598C270.437,312.763 272.267,312.916 274.114,313.056L274.12,313.056C275.972,313.197 277.841,313.324 279.726,313.438L279.733,313.439C281.618,313.553 283.521,313.654 285.438,313.74L285.445,313.74C287.367,313.827 289.305,313.898 291.257,313.957C292.776,314.002 294.305,314.039 295.841,314.068L335.491,345.015Z"/>
            </g>
        </g>
        <g transform="matrix(1,0,0,1,-17.4737,143.799)">
            <path d="M387.632,385.71C386.515,386.002 385.382,386.288 384.232,386.568C382.631,386.958 381,387.337 379.336,387.703C377.685,388.067 376.002,388.42 374.29,388.761C372.587,389.101 370.853,389.429 369.093,389.745C367.338,390.059 365.557,390.36 363.749,390.65C361.949,390.938 360.122,391.216 358.27,391.479C356.423,391.742 354.552,391.991 352.656,392.228C350.765,392.464 348.85,392.686 346.914,392.895C344.982,393.103 343.026,393.3 341.051,393.48C339.079,393.662 337.086,393.828 335.073,393.98C333.067,394.132 331.04,394.271 328.996,394.395L328.989,394.395C326.947,394.518 324.885,394.627 322.808,394.721L322.802,394.721C320.726,394.814 318.633,394.893 316.525,394.956C314.418,395.019 312.295,395.066 310.158,395.098L310.151,395.098C308.018,395.129 305.87,395.147 303.709,395.147C301.547,395.147 299.396,395.13 297.26,395.098C295.123,395.066 293,395.019 290.893,394.956L290.887,394.956C288.78,394.892 286.691,394.814 284.617,394.721L284.61,394.721C282.532,394.627 280.471,394.518 278.429,394.395L278.422,394.395C276.378,394.271 274.351,394.132 272.344,393.98C270.332,393.828 268.34,393.662 266.367,393.48C264.392,393.3 262.437,393.103 260.505,392.895C258.568,392.686 256.653,392.464 254.762,392.228C252.867,391.991 250.995,391.742 249.148,391.479C247.297,391.216 245.47,390.938 243.67,390.65C241.861,390.361 240.081,390.06 238.326,389.745C236.565,389.429 234.832,389.101 233.128,388.761C231.417,388.42 229.734,388.067 228.082,387.703C226.419,387.337 224.787,386.958 223.187,386.568C221.576,386.176 219.999,385.772 218.455,385.358C216.897,384.94 215.372,384.513 213.884,384.074C212.38,383.63 210.914,383.176 209.484,382.711C208.035,382.242 206.622,381.762 205.25,381.271C203.859,380.774 202.508,380.266 201.197,379.749L201.181,379.743C194.042,376.923 189.242,368.262 191.644,359.88C194.465,350.029 204.243,345.942 212.637,349.256C213.639,349.651 214.672,350.04 215.736,350.419L215.747,350.423C216.835,350.812 217.955,351.193 219.104,351.565C220.275,351.945 221.475,352.317 222.705,352.68C223.948,353.047 225.223,353.404 226.524,353.753C227.84,354.106 229.183,354.45 230.554,354.784L230.559,354.785C231.94,355.121 233.349,355.448 234.784,355.764L234.79,355.765C236.238,356.084 237.713,356.393 239.215,356.693C240.725,356.993 242.261,357.284 243.821,357.565C245.388,357.845 246.978,358.114 248.592,358.373L248.599,358.374C250.219,358.634 251.864,358.883 253.53,359.12C255.203,359.357 256.9,359.583 258.618,359.798C260.339,360.012 262.083,360.215 263.846,360.406C265.613,360.596 267.4,360.776 269.207,360.941L269.213,360.941C271.023,361.108 272.851,361.26 274.697,361.4C276.547,361.54 278.416,361.668 280.302,361.782C282.189,361.896 284.094,361.996 286.013,362.083C287.936,362.169 289.875,362.241 291.828,362.3C293.78,362.359 295.748,362.402 297.729,362.432C299.709,362.462 301.703,362.478 303.709,362.478C305.716,362.478 307.712,362.461 309.694,362.432C311.673,362.402 313.639,362.359 315.591,362.3L315.597,362.3C317.548,362.242 319.485,362.169 321.405,362.083C323.325,361.996 325.229,361.896 327.117,361.782C329.002,361.668 330.87,361.54 332.721,361.4C334.568,361.26 336.395,361.108 338.204,360.942L338.211,360.941C340.017,360.776 341.805,360.596 343.572,360.406C345.336,360.215 347.079,360.012 348.801,359.798C350.425,359.595 352.029,359.382 353.613,359.159L387.632,385.71Z"/>
        </g>
        <g transform="matrix(1,0,0,1,13.963,143.996)">
            <path d="M10.799,68.694C15.905,62.609 22.924,60.398 31.926,63.341C39.409,65.788 50.493,74.907 61.899,84.396C61.914,84.408 61.928,84.421 61.943,84.433C70.3,91.446 79.511,99.138 86.534,105.005C86.593,105.054 86.652,105.104 86.711,105.154L386.768,372.862C386.864,372.945 427.531,418.832 427.531,418.832L375.801,383.691L59.892,137.124C59.825,137.07 59.758,137.014 59.692,136.958C48.125,127.173 41.766,121.957 33.553,115.065C23.306,106.467 12.672,97.257 9.052,90.263C4.789,82.027 5.722,74.746 10.799,68.694ZM31.209,87.005C29.099,89.599 35.49,103.077 44.332,110.727L73.975,136.374C82.817,144.024 102.103,149.993 104.213,147.399C106.323,144.806 93.283,126.834 84.441,119.184L54.799,93.537C45.957,85.887 33.32,84.412 31.209,87.005Z"/>
        </g>
        <g transform="matrix(1,0,0,1,3.59629,19.3654)">
            <path d="M142.428,192.895C143.992,192.902 145.257,194.178 145.25,195.742C145.243,197.307 143.967,198.571 142.402,198.564C124.261,198.482 111.49,202.132 102.533,208.691C92.206,216.255 87.069,227.643 84.401,241.12C81.618,255.181 81.532,271.48 81.465,288.315C81.267,338.184 80.888,392.337 17.569,410.254C16.064,410.679 14.496,409.803 14.07,408.298C13.644,406.792 14.52,405.224 16.026,404.798C76.253,387.757 75.608,335.726 75.796,288.292C75.864,271.072 75.993,254.403 78.84,240.019C81.803,225.051 87.713,212.518 99.184,204.117C108.912,196.993 122.725,192.805 142.428,192.895Z" style="stroke:black;stroke-width:27.03px;"/>
        </g>
    </g>
</svg>
