<?xml version="1.0" encoding="UTF-8" standalone="no"?>
<!DOCTYPE svg PUBLIC "-//W3C//DTD SVG 1.1//EN" "http://www.w3.org/Graphics/SVG/1.1/DTD/svg11.dtd">
<svg width="100%" height="100%" viewBox="0 0 17288 17288" version="1.1" xmlns="http://www.w3.org/2000/svg" xmlns:xlink="http://www.w3.org/1999/xlink" xml:space="preserve" xmlns:serif="http://www.serif.com/" style="fill-rule:evenodd;clip-rule:evenodd;stroke-linejoin:round;stroke-miterlimit:2;">
    <g transform="matrix(4.16667,0,0,4.16667,0,0)">
        <g transform="matrix(0.373315,5.33816e-17,-5.33816e-17,0.373315,-1175.56,116.356)">
            <path d="M4631.01,4211.4C4632.52,4208.6 4633.97,4205.69 4635.16,4202.93C4657.71,4150.45 4632.3,4121.92 4627.85,4113.14L4627.83,4113.09C4572.99,4004.81 4505.97,3897.3 4440.9,3792.5C4378.88,3692.6 4318.35,3594.88 4265.2,3494.59C4255.92,3477.06 4249.82,3458.02 4247.21,3438.35L4232.9,3330.79C4230.21,3310.55 4231.25,3290 4235.96,3270.14L4739.85,1080.35L5672.46,2308.78C5687.07,2305.73 5705.16,2300.5 5719.61,2291.79C5741.85,2278.4 5737.33,2253.61 5737.65,2247.7L5737.65,2247.65C5744.31,2126.45 5740.02,1999.83 5736.07,1876.55C5732.3,1759.02 5728.74,1644.12 5732.87,1530.69C5733.59,1510.87 5737.83,1491.33 5745.4,1473L5786.79,1372.69C5794.58,1353.82 5805.76,1336.54 5819.77,1321.69L7335.74,-289.859L7545.6,1215.18C7554.05,1216.23 7564.24,1216.92 7573.68,1216.05C7597.91,1213.82 7622.68,1205.96 7630.1,1203.46C7632.46,1199.59 7635.83,1194.1 7637.41,1191.67L7637.44,1191.63C7703.8,1090 7763.4,978.204 7821.62,869.458C7877.12,765.791 7931.49,664.509 7991.77,568.34C8002.31,551.532 8015.75,536.733 8031.47,524.636L8117.47,458.466C8133.65,446.017 8151.98,436.638 8171.53,430.79L10274.4,-199.921L9716.35,1209.09C9722.44,1214.09 9730.24,1219.93 9737.76,1223.87C9773.97,1242.84 9795.85,1221.44 9802.59,1218.03L9802.63,1218C9910.92,1163.16 10018.4,1096.15 10123.2,1031.08C10223.1,969.054 10320.8,908.525 10421.1,855.382C10438.7,846.093 10457.7,839.999 10477.4,837.384L10584.9,823.079C10605.2,820.388 10625.7,821.425 10645.6,826.141L12804,1337.75L11595.8,2271.42C11598.3,2275.87 11601.2,2280.67 11604.4,2284.72C11634.8,2323.43 11657.1,2329.2 11666.2,2329.69L11666.2,2329.7C11787.4,2336.35 11914,2332.07 12037.3,2328.11C12154.8,2324.35 12269.7,2320.79 12383.2,2324.91C12403,2325.63 12422.5,2329.87 12440.9,2337.44L12541.2,2378.83C12560,2386.62 12577.3,2397.8 12592.2,2411.81L14256.6,3968.24L12710.9,4135.9C12710.5,4144.21 12710.6,4153.26 12711.4,4161.56C12715,4196.13 12731.7,4225.23 12734,4229.11C12834.7,4294.61 12945.3,4353.55 13052.9,4411.15C13156.5,4466.65 13257.8,4521.02 13354,4581.3C13370.8,4591.84 13385.6,4605.28 13397.7,4621L13463.9,4707C13476.3,4723.18 13485.7,4741.5 13491.5,4761.06L14161,6898.79L12714.9,6306.54C12710.4,6312.51 12705.4,6319.85 12702,6326.93C12683.2,6365.2 12692.5,6386.66 12695.8,6393.27L12695.9,6393.31C12750.7,6501.6 12817.7,6609.11 12882.8,6713.9C12944.8,6813.8 13005.3,6911.53 13058.5,7011.82C13067.8,7029.35 13073.9,7048.39 13076.5,7068.05L13090.8,7175.62C13093.5,7195.85 13092.4,7216.41 13087.7,7236.27L12587.5,9409.66L11645.9,8190.78C11637.8,8194.98 11628.7,8200.13 11620.6,8205.81C11589.6,8227.57 11586.5,8251.08 11586,8258.71L11586,8258.76C11579.4,8379.96 11583.7,8506.57 11587.6,8629.86C11591.4,8747.39 11594.9,8862.28 11590.8,8975.71C11590.1,8995.53 11585.9,9015.07 11578.3,9033.41L11536.9,9133.72C11529.1,9152.59 11517.9,9169.87 11503.9,9184.71L9992.39,10780.4L9778.88,9296.79C9771.67,9296.48 9763.89,9296.45 9756.54,9297C9720.82,9299.67 9700.97,9315.1 9696.76,9321.55L9696.73,9321.59C9630.37,9423.23 9570.77,9535.02 9512.55,9643.77C9457.05,9747.44 9402.68,9848.72 9342.4,9944.89C9331.86,9961.7 9318.42,9976.5 9302.7,9988.59L9216.7,10054.8C9200.52,10067.2 9182.19,10076.6 9162.64,10082.4L7070.31,10707.6L7616.9,9306.43C7610.96,9302.68 7604.03,9298.68 7597.24,9295.67C7550.83,9275.04 7528.96,9284.4 7521.09,9288.38L7521.05,9288.4C7412.76,9343.24 7305.25,9410.26 7200.46,9475.32C7100.56,9537.35 7002.84,9597.88 6902.54,9651.02C6885.02,9660.31 6865.97,9666.41 6846.31,9669.02L6738.74,9683.33C6718.51,9686.02 6697.95,9684.98 6678.09,9680.26L4535.66,9171.09L5747.23,8219.84C5745.14,8216.25 5742.89,8212.64 5740.71,8209.63C5708.93,8165.78 5667.23,8177.24 5657.52,8176.71L5657.47,8176.71C5536.27,8170.06 5409.66,8174.34 5286.37,8178.29C5168.84,8182.06 5053.94,8185.62 4940.52,8181.49C4920.69,8180.77 4901.15,8176.53 4882.82,8168.96L4782.51,8127.57C4763.64,8119.78 4746.36,8108.61 4731.52,8094.59L3155.29,6581.25L4642.46,6366.27C4644.08,6356.69 4645.71,6343.91 4645.51,6332.17C4644.91,6296.75 4609.25,6290.03 4603.51,6286.29L4603.47,6286.26C4501.83,6219.9 4390.04,6160.3 4281.3,6102.08C4177.63,6046.58 4076.35,5992.21 3980.18,5931.93C3963.37,5921.39 3948.57,5907.95 3936.47,5892.23L3870.3,5806.23C3857.86,5790.05 3848.47,5771.72 3842.63,5752.17L3203.24,3648.1L4631.01,4211.4ZM5238.81,4326.42C5215.34,4400.61 5181.68,4521.11 5116.85,4613.75L5116.84,4613.77C5038.72,4725.35 4928.8,4801.89 4806.75,4838.21L4806.73,4838.21C4685.08,4874.39 4551.55,4870.33 4425.5,4819.75L4425.48,4819.74C4425.48,4819.74 4207.12,4732.08 4207.12,4732.08C4282.72,4984.94 4380.47,5311.93 4421.16,5448.03C4472.59,5476.96 4527.3,5506.22 4582.71,5535.87L4582.75,5535.89C4709.43,5603.72 4843.11,5668.37 4959.51,5752.76C5061.59,5826.77 5126.51,5924.3 5178.41,6030.11C5198.76,6071.6 5219.48,6125.67 5232.4,6170.98C5253.02,6243.23 5275.18,6364.31 5265.82,6471.58L5265.82,6471.61C5253.95,6607.3 5197.03,6728.54 5109.49,6821.02L5109.48,6821.04C5022.21,6913.19 4904.54,6976.44 4770.09,6995.66L4770.07,6995.66L4537.13,7028.93C4537.13,7028.93 5080.48,7541.94 5080.48,7541.94C5139.48,7541.27 5201.48,7539.26 5264.3,7537.23L5264.35,7537.23C5408.02,7532.63 5556.17,7521.66 5699.21,7536.68C5827.81,7550.19 5924.81,7602.84 6023.15,7664.71C6062.7,7689.59 6097.89,7722.97 6133.36,7754.33C6190.23,7804.6 6281.45,7904.99 6329.3,8007.54L6329.32,8007.57C6386.89,8131.01 6398.22,8264.47 6368.64,8388.34L6368.64,8388.35C6339.14,8511.79 6268.86,8625.41 6162.03,8709.27L6162.01,8709.29L5976.92,8854.56C6288.69,8928.58 6703.97,9027.17 6703.97,9027.17C6754.74,8997.09 6807.43,8964.35 6860.82,8931.18L6860.86,8931.16C6980.64,8856.79 7103.8,8780.58 7229.65,8716.84C7341.56,8660.15 7450.36,8655.39 7568.81,8656.37C7623.53,8656.82 7688.63,8671.85 7741.61,8686.45C7814.82,8706.62 7934.09,8745.13 8024.22,8808.21L8024.24,8808.23C8135.82,8886.34 8212.36,8996.26 8248.68,9118.32L8248.68,9118.34C8284.86,9239.99 8280.8,9373.52 8230.22,9499.56L8230.21,9499.59L8142.55,9717.95C8142.55,9717.95 8858.5,9503.9 8858.5,9503.9C8887.43,9452.47 8916.69,9397.77 8946.34,9342.35L8946.36,9342.31C9012.92,9218.01 9081.47,9090.43 9158.59,8972.3C9227.52,8866.69 9330.86,8805.12 9435.47,8749.27C9468.05,8731.88 9517.54,8711.28 9557.79,8697.28C9632.92,8671.14 9762.96,8640.12 9880.9,8650.41L9880.93,8650.41C10016.6,8662.27 10137.9,8719.19 10230.3,8806.74L10230.4,8806.75C10322.5,8894.01 10385.8,9011.69 10405,9146.14L10405,9146.16C10405,9146.16 10438.2,9379.1 10438.2,9379.1C10438.2,9379.1 10951.3,8835.75 10951.3,8835.75C10950.6,8776.75 10948.6,8714.74 10946.6,8651.93L10946.6,8651.88C10942,8510.96 10937.6,8366.2 10945.3,8225.33C10952.3,8097.88 11004.4,7991.78 11069.9,7891.24C11095.1,7852.68 11129.8,7809.3 11160.8,7773.63C11211.9,7714.76 11309.2,7634.41 11415,7585.06L11415,7585.05C11538.5,7527.47 11671.9,7516.14 11795.8,7545.72L11795.8,7545.73C11919.2,7575.22 12032.9,7645.5 12116.7,7752.33L12116.7,7752.35L12262,7937.45C12262,7937.45 12434.6,7210.39 12434.6,7210.39C12404.6,7159.63 12371.8,7106.93 12338.6,7053.54L12338.6,7053.51C12264.2,6933.72 12188,6810.57 12124.3,6684.71C12064.4,6566.45 12053.2,6438.12 12071.2,6314.79C12077.8,6269.86 12085.7,6223.66 12099.4,6173.02C12118.9,6100.5 12156.7,5986.12 12217.3,5899.48L12217.3,5899.46C12295.5,5787.88 12405.4,5711.33 12527.4,5675.02L12527.4,5675.01C12649.1,5638.83 12782.6,5642.9 12908.7,5693.48L12908.7,5693.49L13127.1,5781.15C13127.1,5781.15 12913,5065.2 12913,5065.2C12861.6,5036.27 12806.9,5007.01 12751.5,4977.36L12751.4,4977.34C12627.1,4910.78 12499.5,4842.23 12381.4,4765.11C12267.7,4690.9 12187.6,4583.46 12147.2,4462.34L12147.2,4462.33C12135.9,4428.13 12119.5,4389.48 12109,4356.4C12085.3,4281.42 12047.7,4151.75 12057.9,4034.83L12057.9,4034.8C12069.7,3899.11 12126.6,3777.86 12214.2,3685.38L12214.2,3685.37C12301.5,3593.21 12419.1,3529.96 12553.6,3510.75L12553.6,3510.74C12553.6,3510.74 12786.6,3477.48 12786.6,3477.48C12594.7,3296.29 12346.5,3061.99 12243.2,2964.47C12184.2,2965.13 12122.2,2967.14 12059.4,2969.17L12059.3,2969.17C11918.4,2973.69 11773.7,2978.11 11632.8,2970.39C11502.5,2963.25 11389.7,2907.57 11290.7,2835.02C11253.3,2807.57 11220.3,2782.8 11176.6,2734.39C11127.6,2680.22 11039.6,2595.7 10994.4,2498.86L10994.4,2498.84C10936.8,2375.39 10925.5,2241.93 10955,2118.07L10955,2118.05C10984.5,1994.61 11054.8,1881 11161.7,1797.13L11161.7,1797.12L11346.8,1651.84C11346.8,1651.84 10619.7,1479.24 10619.7,1479.24C10568.9,1509.31 10516.3,1542.06 10462.9,1575.22L10462.8,1575.25C10343,1649.62 10219.9,1725.83 10094,1789.57C9982.87,1845.88 9878.97,1852.97 9761.81,1854.28C9716.5,1854.79 9633.97,1840.14 9586.37,1828.8C9512.9,1811.31 9403.6,1770.56 9309.95,1705.02L9309.93,1705C9198.35,1626.88 9121.81,1516.97 9085.49,1394.91L9085.49,1394.89C9049.31,1273.24 9053.37,1139.71 9103.95,1013.66L9103.96,1013.64L9191.62,795.281C8884.61,887.067 8475.67,1009.33 8475.67,1009.33C8446.74,1060.75 8417.48,1115.46 8387.83,1170.88L8387.81,1170.92C8321.25,1295.21 8252.7,1422.79 8175.58,1540.92C8103.83,1650.85 7998.88,1722.18 7885.26,1770.38C7835.02,1791.69 7783.85,1813.39 7732.9,1823.64C7660.71,1838.17 7546.8,1865.07 7442.78,1856L7442.75,1855.99C7307.06,1844.13 7185.82,1787.21 7093.34,1699.67L7093.33,1699.65C7001.17,1612.39 6937.92,1494.72 6918.7,1360.27L6918.7,1360.25L6885.44,1127.31C6665.45,1360.3 6372.43,1670.65 6372.43,1670.65C6373.09,1729.65 6375.1,1791.66 6377.13,1854.48L6377.13,1854.52C6381.64,1995.45 6386.07,2140.21 6378.34,2281.07C6371.41,2407.66 6323.35,2503.33 6261.17,2605.03C6235.59,2646.88 6191.35,2704.88 6154.27,2738.58C6100.44,2787.51 6007.34,2875.31 5908.68,2921.35L5908.66,2921.36C5785.22,2978.93 5651.76,2990.26 5527.89,2960.68L5527.88,2960.68C5404.43,2931.19 5290.82,2860.9 5206.95,2754.08L5206.94,2754.06L5061.66,2568.96C5061.66,2568.96 4889.06,3296.01 4889.06,3296.01C4919.13,3346.78 4951.88,3399.47 4985.04,3452.86L4985.07,3452.9C5061.85,3576.57 5150.36,3699.39 5205.15,3834.35C5251.46,3948.4 5260.2,4026.32 5264.92,4137.77C5266.99,4186.71 5257.96,4265.89 5238.81,4326.42Z"/>
        </g>
        <g transform="matrix(8.13681,0,0,8.16306,818.659,731.013)">
            <g transform="matrix(0.35441,0,0,0.363629,-254.826,-63.4055)">
                <path d="M1036.19,453.05L1116.67,205.358C1121.89,189.287 1137.2,178.384 1154.5,178.384C1171.8,178.384 1187.11,189.287 1192.33,205.358L1272.81,453.05L1532.55,453.05C1549.65,453.05 1564.84,463.708 1570.22,479.525C1575.59,495.31 1569.97,512.671 1556.29,522.61L1345.24,675.945L1425.97,924.442C1431.16,940.413 1425.17,957.819 1411.17,967.532C1397.12,977.275 1378.23,977.072 1364.4,967.028C1364.4,967.028 1213.93,857.703 1154.5,814.522L944.593,967.028C930.769,977.072 911.875,977.275 897.827,967.532C883.822,957.819 877.832,940.413 883.022,924.441L963.764,675.944L752.717,522.61C739.036,512.67 733.415,495.31 738.788,479.524C744.17,463.708 759.358,453.05 776.455,453.05C776.455,453.05 981.182,453.05 1036.19,453.05ZM1154.5,276.303L1082.78,497.039C1080.37,504.467 1073.28,509.517 1065.26,509.517L831.704,509.517L1021.1,647.124C1027.36,651.668 1029.97,659.557 1027.62,666.792L955.558,888.581L1143.5,752.036C1150.02,747.295 1158.98,747.295 1165.5,752.036L1353.44,888.581L1281.38,666.792C1279.03,659.557 1281.64,651.668 1287.9,647.124L1477.3,509.517L1243.74,509.517C1235.72,509.517 1228.63,504.467 1226.22,497.039L1154.5,276.303Z"/>
            </g>
            <g transform="matrix(0.181445,0,0,0.184357,-55.1379,47.9453)">
                <path d="M1154.5,217L1243.74,491.666L1532.55,491.666L1298.9,661.419L1388.14,936.084L1154.5,766.331L920.855,936.084L1010.1,661.419L776.455,491.666L1065.26,491.666L1154.5,217Z"/>
            </g>
        </g>
    </g>
</svg>
