<svg xml:space="preserve" width="2em" height="2em" fill="currentColor" fill-rule="evenodd" stroke-linejoin="round" stroke-miterlimit="2" clip-rule="evenodd" viewBox="0 0 463 421" xmlns="http://www.w3.org/2000/svg"><path d="M176.3 233.4H19.9a10.3 10.3 0 1 1 0-8h145.7l-23.3-17.2H60.4v-79.6a10.3 10.3 0 1 1 8 0v71.6h63.3l-12-9a8 8 0 0 1 4.8-14.3H196V87.8h-26V20a10.3 10.3 0 1 1 6.7 0v61h26v86.7l20.5-64.7a8 8 0 0 1 4-4.7V20.1a10.4 10.4 0 1 1 6.7 0v78a8 8 0 0 1 4.5 5l20 63.2V81h26V20.1a10.4 10.4 0 1 1 6.7 0v67.7h-26v89h72a8 8 0 0 1 4.9 14.5l-12 9h62.1v-71.7a10.3 10.3 0 1 1 8 0v79.6h-80.8l-23.2 17.3h146a10.3 10.3 0 1 1 0 8H285.5l-4.6 3.4 4.3 13.7h115v79.6a10.3 10.3 0 1 1-8 0v-71.7H287.7l16.6 52.3a8 8 0 0 1-12.4 8.8l-26.7-19.8V332h26v67.6a10.3 10.3 0 1 1-6.7 0v-61h-26v-43.9l-24.4-18.2V400a10.3 10.3 0 1 1-6.8.1V276.8l-24.5 18.3v43.6h-26v61a10.3 10.3 0 1 1-6.7 0V332h26v-32l-26.2 19.5a8 8 0 0 1-12.4-8.8l16.5-52.3H68.3v71.7a10.3 10.3 0 1 1-7.9 0v-79.6h116.2l4.3-13.7zm54.6-127.9L205.8 185h-81.3l65.7 49-25 79.3 65.7-49 65.8 49-25.2-79.3 65.8-49H256z"/><path d="m230.9 130.6 19.7 61.7h63.8l-51.6 38.1 19.7 61.7L231 254l-51.6 38.1 19.7-61.7-51.7-38h63.9z"/></svg>