<svg xml:space="preserve" width="2em" height="2em" fill="currentColor" fill-rule="evenodd" stroke-linejoin="round" stroke-miterlimit="2" clip-rule="evenodd" viewBox="0 0 422 494" xmlns="http://www.w3.org/2000/svg"><path fill-rule="nonzero" d="M382.9 401.1c-25.9 8.7-67 14.3-113.5 14.3-46.3 0-87.4-5.6-113.3-14.2l-28.2 35.5v19.4l-.2 1.9c0 19.7 63.4 35.6 141.7 35.6 78 0 141.3-15.8 141.7-35.4l.1-.6.1-.5v-28c-3.8-4-25.6-26.4-28.1-27.9z"/><path d="M127.8 54.6c-17.8 0-30.4 3.6-39.2 10a50 50 0 0 0-18.2 32.5q-1 5.4-1.6 11.1l23 19.3L233.5 250l-15-1.2L82.9 138.3l-15-12.6q-.3 9-.3 18.6c-.2 49.9-.6 104-63.9 122a2.8 2.8 0 0 1-1.5-5.5c60.2-17 59.5-69 59.7-116.5q0-12 .4-23.2l-4.6-3.8c-12-10-25.3-20.3-20.3-26.3 4.5-5.3 14.6 3 26.2 12.8L65 96c3-15 8.9-27.5 20.3-35.9 9.6-7 23.2-11.2 42.6-11.2v-7.8c2.2 19.2 64.8 34.6 141.7 34.6S409 60.3 411.2 41v28c-3.8 4-25.6 26.4-28.1 28l-4.2 1.3q-2.2.7-4.5 1.2l-4.7 1.3-4.9 1.2-5.1 1-5.4 1.1-5.6 1-5.7 1a407 407 0 0 1-18.3 2.3l-13 1.2A519 519 0 0 1 291 111l-7.1.2a564 564 0 0 1-21.8.2l-14.3-.4-20.5-1.2-13-1.2-6.3-.7-12-1.6-11.4-2-5.4-1-5.1-1.1-5-1.2-4.6-1.3-4.5-1.2-4-1.5c-1.5-1.8-25-31.4-28.1-35.5zm-60 66.6 7.5 6.2c5.2 4.5 10.5 6.8 11.8 5.3s-2-6.3-7.3-10.7l-11.4-9.6zM63 108l-1-.9c-5.3-4.4-10.6-6.8-11.8-5.3s2 6.3 7.2 10.8l5 4q.1-4.4.6-8.6m238.7 201 115.5 100c.7.6 0 1.4-.7.8L293.2 309.5z"/><path fill-rule="nonzero" d="M269.5 0c-77.8 0-141.7 16-141.7 35.4S191.8 71 269.5 71s141.7-16 141.7-35.5S347.2 0 269.5 0m0 16.5 17.7 14.8 62-.3-51 8.8 20.6 14.6-49.3-9.4-49.3 9.4 20.6-14.6-51-8.8 62 .3z"/><path d="m164 185.2 1.3.4 4.7 1.2 4.8 1.2 5.1 1 5.3 1.1 11.2 2 6 .8 6 .8 6.2.7 6.4.6 13.3 1 13.7.7 14.2.4h14.6l7.1-.1a533 533 0 0 0 27.5-1.4 465 465 0 0 0 19.2-2l12-1.6 11.2-1.9 5.3-1 10-2.3 4.6-1.2 4.3-1.3 4.2-1.3a2.8 2.8 0 0 1 1.8 5.4l-4.3 1.3-4.5 1.3-9.8 2.5-5.2 1.1q-2.6.6-5.4 1-2.7.6-5.6 1l-11.8 1.9-6.1.8-12.8 1.3-6.6.6-13.7.9-7 .3-7.1.2-7.3.2h-7.3a574 574 0 0 1-21.7-.4l-7-.3-13.7-.9-13-1.2-6.4-.7-12.1-1.7-11.4-2-5.4-1-5.2-1.1zm18.4 15.9 2.8.5 5.5 1 5.7 1 6 .8 12.2 1.5 13 1.2 6.7.4a529 529 0 0 0 20.8 1l7.1.1a563 563 0 0 0 28.8-.3l7-.4q3.4-.1 6.7-.4l13.3-1 6.4-.6 6.2-.7 6-.8 6-.9 5.7-.9 5.5-1 5.3-1 5-1.1 5-1.2 4.6-1.2 4.3-1.3 4.2-1.3a3 3 0 0 1 3.6 1.8 3 3 0 0 1-1.8 3.6l-4.3 1.3-4.5 1.4-4.8 1.2-5 1.2-5.2 1.1-5.4 1.1-5.6 1-11.8 1.8-12.4 1.5-6.5.7-6.6.5-6.8.5-14 .7a563 563 0 0 1-21.6.4 574 574 0 0 1-21.7-.4l-13.9-.7-13.4-1-12.8-1.4-12.1-1.7-4.8-.7zm16.6 14.3 3.3.5 6.1.8 6.2.7a480 480 0 0 0 19.7 1.7l6.8.3 14 .6 14.4.2h7.3l7.1-.2 14-.6 13.5-.8 13-1.2 12.3-1.5 5.9-.9 11.2-1.9 10.4-2.1 4.8-1.2 4.7-1.2 4.3-1.3 4.2-1.3a3 3 0 0 1 3.6 1.8 3 3 0 0 1-1.8 3.6l-4.3 1.3-4.5 1.4-4.8 1.2-5 1.2-5.2 1.1-11 2.1-11.8 1.8L325 223l-6.5.7a490 490 0 0 1-20.3 1.4l-14.1.6a570 570 0 0 1-22 0l-14.3-.3-7-.3-13.7-.9-13-1.2-7.3-.8zm15.5 13.5 6.4.6 13.3 1 13.7.8 14.2.3a563 563 0 0 0 28.8-.3l13.7-.7a480 480 0 0 0 19.7-1.7l12.3-1.5 11.6-1.8 5.5-1 5.3-1 10-2.3 4.6-1.2 4.3-1.3 4.2-1.3a2.8 2.8 0 0 1 1.8 5.4l-4.3 1.4-4.5 1.3-4.8 1.2-5 1.2-5.2 1.2-5.4 1-5.6 1-11.8 1.8-12.4 1.5-13.1 1.2-6.8.5a535 535 0 0 1-21 1l-7.3.1h-7.3a574 574 0 0 1-21.7-.4 534 534 0 0 1-20.7-1.2l-5.2-.4zm14.9 12.8 11.7.8a542 542 0 0 0 21.1.6 563 563 0 0 0 28.8-.3l7-.3 6.7-.4 13.3-1 6.4-.7 6.2-.7 12-1.6 11.2-2 5.3-1 5-1.1 5-1.2 4.6-1.2 4.3-1.3 4.2-1.3a3 3 0 0 1 3.6 1.8 3 3 0 0 1-1.8 3.6l-4.3 1.4-4.5 1.3-4.8 1.2-5 1.2-5.2 1.2-5.4 1-5.6 1-11.8 1.8-6.1.8-12.8 1.4-6.6.5-6.8.5-14 .7-7 .3a570 570 0 0 1-22 .1l-14.3-.4-11.3-.5zm79.9 69.1 2.1-.1 13-1.2 6.2-.7 12-1.7 11.2-1.9 10.4-2.1 4.8-1.2 4.7-1.2 4.3-1.3 4.2-1.3a3 3 0 0 1 3.6 1.8 3 3 0 0 1-1.8 3.6l-4.3 1.3-4.5 1.3-4.8 1.3-5 1.2-5.2 1.1-11 2q-2.8.6-5.8 1t-6 .9L325 315l-9.7 1zm12 10.5 15.4-1.8 5.9-.9 11.2-1.9 5.3-1 10-2.3 4.6-1.2 4.3-1.3 4.2-1.3a3 3 0 0 1 3.6 1.8 3 3 0 0 1-1.8 3.6l-4.3 1.3-4.5 1.3-4.8 1.3-5 1.2-5.2 1.1q-2.6.6-5.4 1l-5.6 1.1-11.8 1.8-10.2 1.3zm11.8 10.2 9.5-1.4 5.7-.9 5.5-1 5.3-1 5-1.1 5-1.2 4.6-1.2 4.3-1.3 4.2-1.3a3 3 0 0 1 3.6 1.8 3 3 0 0 1-1.8 3.6l-4.3 1.3-4.5 1.4-4.8 1.2-5 1.2-5.2 1.1-5.4 1.1-5.6 1-10.3 1.6zm11.5 9.8 3.7-.6q2.8-.4 5.5-1l10.4-2.1 4.8-1.2 9-2.5 4.2-1.3a3 3 0 0 1 3.6 1.8 3 3 0 0 1-1.8 3.6l-4.3 1.4-4.5 1.3-4.8 1.2-5 1.2-5.2 1.1-10 2zm11 9.6 3.5-.7 10-2.3 4.6-1.2 4.3-1.3 4.2-1.3a2.8 2.8 0 0 1 1.8 5.4l-4.3 1.4-4.5 1.3-4.8 1.2-5 1.2-4.4 1zm10.7 9.2 2.7-.7 4.7-1.2 4.3-1.3 4.2-1.3a3 3 0 0 1 3.6 1.8 3 3 0 0 1-1.8 3.6l-4.3 1.4-4.5 1.3-3.7 1zm10.2 8.8 1.5-.4 4.2-1.4a2.8 2.8 0 0 1 1.8 5.4l-2.5.8zm4 16.2-.8.3-4.5 1.3-4.8 1.3-5 1.2-5.2 1-5.4 1.2-5.6 1-11.8 1.8-12.4 1.5-6.5.6-6.6.6-6.8.5-14 .7a563 563 0 0 1-21.6.4 574 574 0 0 1-21.7-.4l-13.9-.7-13.4-1.1-12.8-1.4-12.1-1.6-11.4-2-5.4-1-10.2-2.3-4.8-1.3-4.5-1.3-4.3-1.4a2.8 2.8 0 0 1 1.8-5.4l4.2 1.4 4.3 1.2 4.7 1.3 4.8 1.1 5.1 1.1q2.6.6 5.3 1 2.7.6 5.5 1l5.7 1 6 .8 12.2 1.5 13 1.2 6.7.5a529 529 0 0 0 20.8 1l14.4.1 14.4-.2q3.6 0 7-.2l7-.3 6.8-.4 13.3-1 12.6-1.4 6-.8 6-.8 5.7-1 5.5-1q2.7-.4 5.3-1l5-1 5-1.2 6.2-1.7zm-10.4-8.6-4.7 1.1-5.2 1.2-11 2-11.8 1.8-12.4 1.6-6.5.6-13.4 1-13.9.8-7.1.2a570 570 0 0 1-36.3-.2l-7-.4-13.7-.8-6.6-.6-12.8-1.4q-3.1-.3-6.1-.8l-11.8-1.8-11-2-10.2-2.4-4.8-1.2-4.5-1.3-4.3-1.4a2.8 2.8 0 0 1 1.8-5.4l4.2 1.4 4.3 1.2q2.3.7 4.7 1.2l4.8 1.2 5.1 1.1 10.8 2 5.7 1 12 1.6 6.2.7 6.4.6 13.3 1 6.8.5 7 .3 14.1.4h14.6q3.6 0 7.1-.2l14-.5 13.5-.9 13-1.2 12.3-1.5 5.9-.8 11.2-2 5.3-1 5-1 .4-.2zm-11.1-9-9.8 1.8-11.8 1.8-6.1.8-12.8 1.4-6.6.6-6.8.4-14 .7-7 .3a570 570 0 0 1-22 .1l-14.3-.4-7-.3-6.9-.4-6.8-.5-13-1.2-6.4-.7-12.1-1.6-11.4-2-5.4-1-5.2-1.2-5-1.2-9.3-2.5-4.3-1.4a2.8 2.8 0 0 1 1.8-5.4l4.2 1.3 4.3 1.3 4.7 1.2 4.8 1.2 5.1 1.1q2.6.6 5.3 1 2.7.6 5.5 1l5.7 1 6 .8 12.2 1.5 6.4.6 6.6.6 13.5.9a542 542 0 0 0 21.1.6 563 563 0 0 0 28.8-.3l7-.3 13.4-.9 6.6-.6 6.4-.6 6.2-.7 12-1.6 10.6-1.8zm-11.6-9.4-10 1.5-12.4 1.5-13.1 1.2-6.8.5-13.9.7-14.4.4h-7.3a574 574 0 0 1-21.7-.4l-13.9-.7-13.4-1-12.8-1.4-12.1-1.6-11.4-2-5.4-1-10.2-2.4-4.8-1.2-4.5-1.3-4.3-1.4a2.8 2.8 0 0 1 1.8-5.4l4.2 1.3 4.3 1.3 4.7 1.2 4.8 1.2 5.1 1.1 5.3 1 11.2 2 6 .8a415 415 0 0 0 18.6 2.1l13.3 1 13.7.8a571 571 0 0 0 21.5.4l14.4-.2q3.6 0 7-.2l7-.3 20-1.5 12.7-1.3 10.9-1.5zm-12-9.7-10.4 1.2-6.5.7a490 490 0 0 1-20.3 1.4l-7 .3-7.1.3a570 570 0 0 1-36.3-.3l-7-.3-13.7-.9a474 474 0 0 1-19.4-1.9l-6.1-.8-11.8-1.8-11-2-5.2-1.2-5-1.2-4.8-1.2-4.5-1.3-4.3-1.4a2.8 2.8 0 0 1 1.8-5.4l4.2 1.3 4.3 1.3 4.7 1.2 4.8 1.2 10.4 2.1q2.7.6 5.5 1l5.7 1 12 1.6 6.2.7 6.4.6 13.3 1 6.8.5 7 .3 14.1.3h14.6l7.1-.1 14-.5 13.5-1 13-1.1 5-.6zm-12.3-10-4.6.4-6.6.5-6.8.5-14 .7q-3.4.2-7 .2a570 570 0 0 1-22 .2l-14.3-.4-7-.3-6.9-.4-13.4-1-12.8-1.4-12.1-1.7-11.4-1.9-5.4-1-5.2-1.2-5-1.2-9.3-2.6-4.3-1.3a2.8 2.8 0 0 1 1.8-5.4l4.2 1.3 4.3 1.3 4.7 1.2 4.8 1.2 5.1 1 5.3 1.1 5.5 1 11.6 1.8 12.3 1.5 13 1.2 6.7.4a529 529 0 0 0 20.8 1l7.1.1a563 563 0 0 0 28.8-.3l7-.4q3.4-.1 6.7-.4l12-.9zm-12.8-10.5-12 .8-14.2.5-7.3.2h-7.3a574 574 0 0 1-21.7-.4 534 534 0 0 1-20.7-1.2l-13-1.2-6.4-.7-12.1-1.7-11.4-1.9-5.4-1-10.2-2.4-4.8-1.3-4.5-1.3-4.3-1.3a2.8 2.8 0 0 1 1.8-5.4l4.2 1.3 4.3 1.3 4.7 1.2 4.8 1.2 5.1 1 5.3 1.1 11.2 2 6 .8 6 .8 6.2.7 6.4.6 13.3 1 13.7.7 14.2.4a563 563 0 0 0 28.8-.4l12.9-.6zM297 317.2a557 557 0 0 1-27.6.7 574 574 0 0 1-21.7-.4l-13.9-.7-6.8-.5-13-1.2-6.4-.7-6.1-.8-6-.9-11.4-2-5.4-1-5.2-1.1-5-1.2-4.8-1.3-4.5-1.3-4.3-1.3a2.8 2.8 0 0 1 1.8-5.4l4.2 1.3 4.3 1.3 4.7 1.2 4.8 1.2 10.4 2.1 5.5 1 5.7 1 6 .8 6 .8 6.2.7a480 480 0 0 0 19.7 1.6l6.8.4a542 542 0 0 0 21.1.7h14.6l7.1-.1 6.6-.2zm-88-71.7-1.2-.2-12.1-1.6-11.4-2-5.4-1-5.2-1.2-5-1.2-9.3-2.5-4.3-1.4a2.8 2.8 0 0 1 1.8-5.4l4.2 1.3 4.3 1.3 4.7 1.2 4.8 1.2 5.1 1.1 5.3 1q2.7.6 5.5 1l9.8 1.6zm-17-14-2.1-.3-5.6-1-5.4-1-10.2-2.4-4.8-1.2-4.5-1.3-4.3-1.4a2.8 2.8 0 0 1 1.8-5.4l4.2 1.3 4.3 1.3 4.7 1.2 4.8 1.2 8 1.7zm-18.7-15-4.6-1.2-4.8-1.2-4.5-1.4-4.3-1.3a2.8 2.8 0 0 1 1.8-5.4l5.8 1.8zM155 107.7a2.8 2.8 0 0 1 1.8-5.4l4.2 1.3 4.3 1.3 4.7 1.2 4.8 1.2 5.1 1.1 5.3 1q2.7.6 5.5 1l11.6 1.8 12.3 1.5 13 1.2 6.7.5a529 529 0 0 0 20.8.9l7.1.1a563 563 0 0 0 28.8-.3l7-.3 6.7-.4 13.3-1 6.4-.7 6.2-.7 12-1.6 5.7-1q2.8-.4 5.5-1l5.3-1 5-1.1 5-1.2 4.6-1.2 4.3-1.3 4.2-1.3a3 3 0 0 1 3.6 1.8 3 3 0 0 1-1.8 3.6l-4.3 1.4-4.5 1.3-4.8 1.2-5 1.2-5.2 1.2-5.4 1-5.6 1-11.8 1.8-12.4 1.5-6.5.7-6.6.5-6.8.5-14 .7-7 .3a570 570 0 0 1-22 .1l-14.3-.4a523 523 0 0 1-20.7-1.2l-13-1.2-6.4-.7-12.1-1.6-11.4-2-5.4-1-5.2-1.2-5-1.2-9.3-2.5zm0 11.5a2.8 2.8 0 0 1 1.8-5.4l4.2 1.4 4.3 1.2 4.7 1.2 4.8 1.2 10.4 2.2 5.5 1 5.7.9 12 1.6 6.2.7 6.4.6 13.3 1 6.8.5 7 .3 14.1.3H284l14-.6 13.5-.9 13-1.2 12.3-1.5 5.9-.8 11.2-2 10.4-2 4.8-1.3 4.7-1.2 4.3-1.2 4.2-1.4a3 3 0 0 1 3.6 1.8 3 3 0 0 1-1.8 3.6l-4.3 1.4-4.5 1.3-4.8 1.2q-2.4.7-5 1.2l-5.2 1.2-11 2-11.8 1.8L325 131l-6.5.7a490 490 0 0 1-20.3 1.4l-7 .4-7.1.2-7.3.1h-7.3a574 574 0 0 1-21.7-.3l-7-.4-13.7-.8a474 474 0 0 1-19.4-2q-3.1-.3-6.1-.8l-11.8-1.8-11-2-5.2-1.2-5-1.2-4.8-1.2-4.5-1.3zm0 11.5a2.8 2.8 0 0 1 1.8-5.4l4.2 1.4 4.3 1.2 4.7 1.3 4.8 1.1 5.1 1.1q2.6.6 5.3 1l11.2 2 6 .8a415 415 0 0 0 18.6 2.2l13.3 1 13.7.7a571 571 0 0 0 21.5.4l14.4-.2q3.6 0 7-.2l7-.3 20-1.4 12.7-1.4 12-1.6 11.2-2q2.7-.4 5.3-1l10-2.2 4.6-1.3 4.3-1.2 4.2-1.4a2.8 2.8 0 0 1 1.8 5.4l-4.3 1.4-4.5 1.3-4.8 1.3-5 1.1-5.2 1.2-5.4 1q-2.7.6-5.6 1l-11.8 1.8-12.4 1.6-13.1 1.2-6.8.4-14 .8-14.3.3h-7.3a574 574 0 0 1-21.7-.3L234 144l-13.4-1-12.8-1.4-12.1-1.6-11.4-2-5.4-1-10.2-2.3-4.8-1.3-4.5-1.3zm0 11.5a2.8 2.8 0 0 1 1.8-5.4l4.2 1.4 4.3 1.2 4.7 1.3 4.8 1.1 5.1 1.1q2.6.6 5.3 1 2.7.6 5.5 1l5.7 1 6 .8 12.2 1.5 6.4.7 6.6.5 13.5.9a542 542 0 0 0 21.1.7 563 563 0 0 0 28.8-.4l7-.3 13.4-.9 6.6-.5 6.4-.7 6.2-.7 12-1.6 11.2-2 5.3-1 5-1 5-1.2 4.6-1.3 4.3-1.2 4.2-1.4a3 3 0 0 1 3.6 1.8 3 3 0 0 1-1.8 3.6l-4.3 1.4-4.5 1.3-4.8 1.3-5 1.2-5.2 1-5.4 1.2-5.6 1-11.8 1.8-6.1.7-12.8 1.4-6.6.6-6.8.5-14 .7-7 .2a570 570 0 0 1-22 .1l-14.3-.3-7-.3-6.9-.4-6.8-.5-13-1.2-6.4-.8-12.1-1.6-11.4-2-5.4-1-5.2-1.1-5-1.2-9.3-2.6zm0 11.5a2.8 2.8 0 0 1 1.8-5.3l4.2 1.3 4.3 1.3 4.7 1.2 4.8 1.1 5.1 1.1 10.8 2q2.8.6 5.7 1l12 1.6 6.2.7 6.4.7 13.3 1 6.8.4 7 .3 14.1.4h14.6q3.6 0 7.1-.2l14-.5 13.5-.9 13-1.2 12.3-1.5 5.9-.8 11.2-2 5.3-1 5-1 5-1.2 4.6-1.2 4.3-1.3 4.2-1.3a2.8 2.8 0 0 1 1.8 5.3l-4.3 1.4-4.5 1.3-9.8 2.5-5.2 1.1-11 2-11.8 1.9-12.4 1.5-6.5.6-13.4 1-14 .8-7 .2a570 570 0 0 1-36.3-.2l-7-.3-13.7-1-6.6-.5-12.8-1.3-6.1-.8-11.8-1.8-11-2.1-10.2-2.3-4.8-1.3-4.5-1.3zm0 11.5a2.8 2.8 0 0 1 1.8-5.3l4.2 1.3 4.3 1.3 4.7 1.2 4.8 1.1 5.1 1.2 5.3 1 11.2 1.9 6 .9 12.2 1.4 13 1.2 6.7.5a529 529 0 0 0 20.8 1l14.4.1 14.4-.2q3.6 0 7-.2l7-.3 6.8-.4 13.3-1 12.6-1.4 6-.7 11.7-1.8 5.5-1 5.3-1 5-1.2 5-1.1 4.6-1.2 4.3-1.3 4.2-1.3a2.8 2.8 0 0 1 1.8 5.3l-4.3 1.4-4.5 1.3-4.8 1.3-5 1.2-5.2 1.1q-2.6.6-5.4 1-2.7.6-5.6 1l-11.8 1.9L325 177l-6.5.6-6.6.6-6.8.5-14 .7a563 563 0 0 1-21.6.4 574 574 0 0 1-21.7-.4l-13.9-.7-13.4-1-12.8-1.4-12.1-1.7-11.4-2-5.4-1-10.2-2.3-4.8-1.3-4.5-1.3zm0 11.5a2.8 2.8 0 0 1 1.8-5.3l4.2 1.3 4.3 1.3 4.7 1.2 4.8 1.2 5.1 1 5.3 1.1 5.5 1 5.7 1 6 .8 6 .7 6.2.8a480 480 0 0 0 19.7 1.6l6.8.4a542 542 0 0 0 21.1.7h14.6l21.1-.7 13.5-.9 13-1.1 6.2-.8 12-1.6 11.2-1.9 5.3-1 5-1.1 5-1.2 4.6-1.2 4.3-1.3 4.2-1.3a3 3 0 0 1 3.6 1.8 3 3 0 0 1-1.8 3.5l-4.3 1.4-4.5 1.3-4.8 1.3-5 1.2-10.6 2.2-5.6 1-5.8 1-6 .8-12.4 1.5-6.5.6-6.6.6-6.8.5-6.9.4-14.1.5a570 570 0 0 1-22 .2l-14.3-.4-13.9-.7-6.8-.5-13-1.2-6.4-.7-6.1-.8-6-.9-11.4-2-10.6-2.1-5-1.2-9.3-2.6zm0 218.7a2.8 2.8 0 0 1 1.8-5.3l4.2 1.3 4.3 1.2 4.7 1.3 4.8 1.1 5.1 1.1q2.6.6 5.3 1 2.7.6 5.5 1l5.7 1 6 .8 6 .8 6.2.7a480 480 0 0 0 19.7 1.7l6.8.4a542 542 0 0 0 21.1.7h14.6l21.1-.7 13.5-.9 13-1.2 6.2-.7 12-1.6 11.2-2 5.3-1 5-1 5-1.2 4.6-1.3 4.3-1.2 4.2-1.3a3 3 0 0 1 3.6 1.7 3 3 0 0 1-1.8 3.6l-4.3 1.4-4.5 1.3-4.8 1.3-5 1.2-10.6 2.2-5.6 1-5.8.9-6 .9-12.4 1.5-6.5.6-6.6.6-6.8.5-6.9.4-14.1.5a570 570 0 0 1-22 .1l-14.3-.3-13.9-.7-6.8-.5-13-1.2-6.4-.7-6.1-.8-6-.9-11.4-2-10.6-2.1-5-1.2-9.3-2.6z"/><path d="M155 292a2.8 2.8 0 0 1 1.8-5.4l4.2 1.3 4.3 1.3 4.7 1.2 4.8 1.1 5.1 1.2 5.3 1 5.5 1 5.7 1 6 .8 12.2 1.5 13 1.1 6.7.5a529 529 0 0 0 20.8 1l14.4.1 14.4-.1 7-.3 7-.3 6.8-.4 13.3-1 12.6-1.4 6-.7 6-.9 5.7-1 5.5-.9 5.3-1 5-1.2 5-1.1 4.6-1.2 4.3-1.3 4.2-1.3a3 3 0 0 1 3.6 1.8 3 3 0 0 1-1.8 3.5l-4.3 1.4-4.5 1.3-4.8 1.3-5 1.2-5.2 1.1q-2.6.6-5.4 1-2.7.6-5.6 1l-11.8 1.9-12.4 1.5-6.5.6-6.6.6-6.8.5-14 .7a563 563 0 0 1-21.6.4 574 574 0 0 1-21.7-.4l-13.9-.7-13.4-1-12.8-1.4-12.1-1.7-11.4-2-5.4-1-10.2-2.3-4.8-1.3-4.5-1.3zm0-11.5a2.8 2.8 0 0 1 1.8-5.3l4.2 1.3 4.3 1.3 4.7 1.2 4.8 1.1 5.1 1.1 10.8 2q2.8.6 5.7 1l6 .9 6 .7 6.2.7 6.4.7 13.3 1 13.7.7 14.2.4h14.6q3.6 0 7.1-.2l14-.5 13.5-.9 13-1.2 12.3-1.4 5.9-.9 11.2-1.9 5.3-1 5-1.2 5-1.1 4.6-1.2 4.3-1.3 4.2-1.3a2.8 2.8 0 0 1 1.8 5.3l-4.3 1.4-4.5 1.3-9.8 2.5-5.2 1.1-11 2q-2.8.6-5.8 1t-6 .9L325 292l-6.5.6-13.4 1-14 .8-7 .2a570 570 0 0 1-36.3-.2l-7-.3-13.7-1-6.6-.5-12.8-1.3-12.1-1.7-5.8-1-11-2-10.2-2.3-4.8-1.3-4.5-1.3zm0-11.5a2.8 2.8 0 0 1 1.8-5.3l4.2 1.3 4.3 1.2 4.7 1.3 4.8 1.1 5.1 1.1q2.6.6 5.3 1 2.7.6 5.5 1l5.7 1 6 .8 12.2 1.5 6.4.7 6.6.5 13.5.9a542 542 0 0 0 21.1.7 563 563 0 0 0 28.8-.4l7-.3 13.4-.9 6.6-.5 6.4-.7 6.2-.7 12-1.6 11.2-2 5.3-1 5-1 5-1.2 4.6-1.3 4.3-1.2 4.2-1.3a3 3 0 0 1 3.6 1.7 3 3 0 0 1-1.8 3.6l-4.3 1.4-4.5 1.3-4.8 1.3-5 1.2-5.2 1-5.4 1.2-5.6 1-11.8 1.8-6.1.8-12.8 1.3-6.6.6-6.8.5-6.9.4a553 553 0 0 1-28.7.7 574 574 0 0 1-21.7-.4l-7-.3-6.9-.4-6.8-.5-13-1.2-6.4-.7-12.1-1.7-11.4-2-5.4-1-5.2-1.1-5-1.2-9.3-2.6zm0-11.5a2.8 2.8 0 0 1 1.8-5.4l4.2 1.4 4.3 1.2 4.7 1.3 4.8 1.1 5.1 1.1q2.6.6 5.3 1l11.2 2 6 .8a415 415 0 0 0 18.6 2.2l6.6.5 6.7.5a529 529 0 0 0 20.8 1l14.4.1 14.4-.2q3.6 0 7-.2l7-.3 6.8-.4 6.7-.5a465 465 0 0 0 19.2-1.9l6-.8 11.7-1.7 5.5-1 5.3-1 5-1.2 5-1.1 4.6-1.3 4.3-1.2 4.2-1.4a2.8 2.8 0 0 1 1.8 5.4l-4.3 1.4-4.5 1.3-4.8 1.3-5 1.1-5.2 1.2-5.4 1q-2.7.6-5.6 1l-11.8 1.8-12.4 1.6-6.5.6-6.6.6-6.8.4-14 .8a563 563 0 0 1-21.6.4 574 574 0 0 1-21.7-.4l-13.9-.8-13.4-1-12.8-1.4-12.1-1.6-11.4-2-5.4-1-10.2-2.3-4.8-1.3-4.5-1.3zm0-11.5a2.8 2.8 0 0 1 1.8-5.4l4.2 1.4 4.3 1.2 4.7 1.2 4.8 1.2 5.1 1.1 10.8 2 5.7 1 12 1.6 6.2.7 6.4.6 13.3 1 6.8.5 7 .3 14.1.3H284l14-.6 13.5-.9 13-1.2 12.3-1.5 5.9-.8 11.2-2 5.3-1 5-1 5-1.3 4.6-1.2 4.3-1.2 4.2-1.4a2.8 2.8 0 0 1 1.8 5.4l-4.3 1.4-4.5 1.3-9.8 2.4-5.2 1.2-11 2-11.8 1.8-12.4 1.5-13.1 1.3a525 525 0 0 1-20.7 1.2l-7.1.2a570 570 0 0 1-36.3-.2l-7-.4-13.7-.8-6.6-.6-12.8-1.4q-3.1-.3-6.1-.8l-11.8-1.8-11-2-10.2-2.4-4.8-1.2-4.5-1.3z"/></svg>