<svg xml:space="preserve" width="2em" height="2em" fill="currentColor" fill-rule="evenodd" stroke-linejoin="round" stroke-miterlimit="2" clip-rule="evenodd" viewBox="0 0 13280 16130" xmlns="http://www.w3.org/2000/svg"><path d="M5802.7 590.3c-2374.2 0-4306.1 1931.7-4306.1 4306V11206c0 2374.5 1931.6 4306.2 4306.1 4306.2h1673.8c2374.3 0 4306-1931.9 4306-4306.2V4896.4c0-2374.3-1931.7-4306-4306-4306zm1673.6 15369.9H5802.7c-2621.3 0-4753.8-2132.8-4753.8-4754.1l-.1-6309.7c0-2621.3 2132.5-4753.8 4754-4753.8h1673.7c2621.2 0 4753.7 2132.5 4753.7 4753.8v6309.5c-.1 2621.5-2132.7 4754.3-4753.9 4754.3"/><path d="M3018.6 5152.4a399.3 399.3 0 0 0-398.9 398.8v2669c0 220.1 178.9 399 399 399h7242a399 399 0 0 0 398.7-399V5551.3c0-506.7-622.5-398.7-1065-398.7-188 198.6-556.7 136-926.5 136a434 434 0 0 1-314-136H4925.3c-188 198.6-556.7 136-926.5 136a434 434 0 0 1-314-136h-666.2zM10260.5 9067H3018.6c-466.9 0-846.6-379.8-846.6-846.7v-2669c0-466.7 379.7-846.5 846.6-846.5h785.2c90 0 171 53.8 206 136h590.5a224 224 0 0 1 206-136H8473c90 0 171 53.8 205.8 136h590.7c35-82.2 115.8-136 205.8-136h785.3c466.8 0 846.6 379.8 846.6 846.5v2669c-.1 467-379.9 846.6-846.7 846.6M12230 7961.7c160.1 0 457.4 40.6 457.4-228.5V5925.9c0-269.2-297-228.6-457.4-228.6zm228.7 447.8c-298.2 0-676.3 69-676.3-223.9V5473.5c0-293 378.2-224 676.3-224 372.9 0 676.5 303.4 676.5 676.4v1807.3a677.3 677.3 0 0 1-676.5 676.3M820.3 5697.3A229 229 0 0 0 591.6 5926v1807.3c0 269 297 228.4 457.2 228.5V5697.3zm452.4 2712.2H820.3c-373 0-676.5-303.3-676.5-676.3V5925.9c0-373 303.6-676.4 676.5-676.4 298.3 0 676.3-69 676.3 224v2712.1a224 224 0 0 1-224 223.9"/><path d="M8684 4840.6h580v-857h-580zm596.2 447.8c-1158.1 0-1044.2 32.2-1044.2-1320.9 0-535.4 634.1-431.5 1044.2-431.5a432 432 0 0 1 431.6 431.6V4857a432 432 0 0 1-431.6 431.5m-5265.4-447.8h580.4v-857h-580.4zm596.6 447.8c-1158.3 0-1044.2 32.3-1044.2-1320.9 0-535.4 634-431.5 1044.2-431.5a432 432 0 0 1 431.5 431.6V4857a432 432 0 0 1-431.5 431.5M3021 5547.9a103 103 0 0 1 63.5-20.8l3555 3.6 3555-3.6c23.8 0 46.6 7.5 63.6 20.8a65 65 0 0 1 26.3 50.2l.3 2580c0 38.6-38.8 70-87.6 71.1h-3.8.3c-922 19-1843.5 38-2481.2 47.7-320.3 4.8-568.5 7.3-781 8.6q-9.1 1.6-18.7 1.6c-89.6 0-179.1-.1-273.2-.4-94 .3-183.6.3-273.2.4q-9.6 0-18.6-1.6c-212.6-1.3-460.9-3.8-781-8.6-637.9-9.7-1559.4-28.7-2481.3-47.6h.2l-1.8-.1h-1.9c-48.8-1-87.6-32.5-87.6-71l.3-2580c0-19 9.5-37 26.4-50.3m1953.1 1198.5-604 667.3-319.6 353-294 324.7-25.2 28-1 1 269.8 5.4 1138-1257v-.1zm421.5 314 114.2-125.6-257.6-191.9h-.2l-113.9 125.8zm0 0-965.8 1063.4-9.6 10.4c329.5 6.5 638 12.2 909.3 16.8l-42.7-1 300.3-946.8zm67.5 1092.8-133.6-2.2 133.4 3zm0 0 107 1.7 73.5 1-24-.5 340.2-1081.3-336.2-262.5-1.1-.8-112.7 124L5785 7140zm376.3 5.4-195.8-2.6 194.1 3.8zm0 0c104.2 1.3 200 2.3 289 3.2l210-155.5 329.8-363 32.6-35.8-58.3-43.8zm499-152.3-141.8 156-68.2-.5 68 1 235.2-16.1 211.5-157.2 205.5 155.9 277.2-6.6-483.2-359.6-302.5 225.9zM7924 6260.8 6700.7 7607.4l.7.6 728.8 537 231.4-.5-346.1-1078.7 1090.3-804.2-481.3-.8zm0 0 142.7-157-894.5.7-136.7-431.3-165.5-.2 189.6 589.2zm295-324.8-152.3 167.8h.3l822.3-.2-1388.9 1036.6L7818.7 8145l176.2-3-297.3-938 1291.5-964a170.3 170.3 0 0 0-101.8-307l-667.8 3zm0 0 240.9-265-1194.9 1.2a113 113 0 0 1-16 1.2h-35.2L7296 5936zm-1183.5-262.8 178.3.2v-.1l-178.4-.6zm-753 411 373.7-411.4 213.8.2v-.3h-214l-240.2-3.8-133.1 414.8zm0 0-161.3 177.4 104.5.5zm-595 177.6-324.1 358 .4.3 258.6 190.7 81.5-89.8 417.3-459.4h-.4zm0 0 142.4-157.3h-274.7l-142.5 157.3zm383.6-588.4 149.1-.1-229.3 253.3-2.9 9h-5.2l-153 168.9 281.8-.4 136.6-430.3-27.9-.5zm0 0h-41.3a113 113 0 0 1-16-1.2h-67.3l-238.4 263.4c90.6.8 183.5-.8 274.7 0l8-9zm-1097 1073 69.3-76.6 44.6-49.3-692.8-516.5 1157 .5h3l152.9-169-1308.3.9a170.4 170.4 0 0 0-102 307zm0 0 40.4-44.7zm40.5-44.7 73.6-81.1-44.7 49.2zm73.6-81.1 163.8 122.2 6-6.6 105.5-116.4-165.1-121zm324.6-358.8h-534.5l320 237zm3710 1769.8-91.2 99.2 98-2 113-122.8 862.4-937.4v-104.4z"/></svg>