<?xml version="1.0" encoding="UTF-8" standalone="no"?>
<!DOCTYPE svg PUBLIC "-//W3C//DTD SVG 1.1//EN" "http://www.w3.org/Graphics/SVG/1.1/DTD/svg11.dtd">
<svg width="100%" height="100%" viewBox="0 0 1211 1115" version="1.1" xmlns="http://www.w3.org/2000/svg" xmlns:xlink="http://www.w3.org/1999/xlink" xml:space="preserve" xmlns:serif="http://www.serif.com/" style="fill-rule:evenodd;clip-rule:evenodd;stroke-linejoin:round;stroke-miterlimit:2;">
    <g transform="matrix(1,0,0,1,-730.196,-1128.57)">
        <g id="Layer2" transform="matrix(1.22636,0,0,1.22636,-306.646,-471.823)">
            <path d="M1819.8,2214.16L858.104,2214.16C851.139,2214.16 845.465,2207.14 845.465,2198.47L845.465,1320.7C845.465,1312.03 851.139,1305 858.104,1305L959.353,1305C966.317,1305 971.992,1312.03 971.992,1320.7L971.992,1363.18L1317.79,1363.18C1319.09,1363.18 1320.35,1363.31 1321.56,1363.56C1327.3,1334.53 1352.97,1312.55 1383.66,1312.55C1414.18,1312.55 1439.73,1334.33 1445.61,1363.18L1705.91,1363.18L1705.91,1320.7C1705.91,1312.03 1711.55,1305 1718.55,1305L1819.8,1305C1826.76,1305 1832.4,1312.03 1832.4,1320.7L1832.4,2198.47C1832.43,2207.14 1826.76,2214.16 1819.8,2214.16ZM946.679,2182.77L946.679,1336.39L870.777,1336.39L870.777,2182.77L946.679,2182.77ZM971.992,2138.23L971.992,2188.82L1705.91,2188.82L1705.91,2138.23L971.992,2138.23ZM1378.94,1590.06C1376.59,1589.12 1374.55,1587.49 1373.09,1585.31L1322.46,1509.38C1321.11,1507.31 1320.36,1504.86 1320.36,1502.38L1320.36,1463.79C1318.88,1464.18 1317.3,1464.39 1315.66,1464.39L971.992,1464.39L971.992,2112.92L1705.91,2112.92L1705.91,1464.39L1446.89,1464.39L1446.89,1502.38C1446.89,1504.86 1446.14,1507.34 1444.78,1509.38L1394.15,1585.31C1393.55,1586.23 1392.84,1587.04 1392.04,1587.76C1392.23,1588.22 1392.36,1588.71 1392.44,1589.22C1393.46,1595.59 1392.67,1602.38 1390.45,1606.81C1388.03,1611.62 1384.11,1614.26 1379.26,1614.26L1290.21,1614.26C1287.55,1614.26 1284.51,1615.59 1282.05,1617.61C1279.77,1619.47 1277.9,1622 1277.74,1625.01C1277.53,1628.85 1278.15,1632.01 1279.38,1634.19C1279.65,1634.67 1280.19,1635.27 1280.42,1635.51C1292.45,1635.51 1394.94,1635.57 1399.05,1635.57C1403.87,1635.57 1408.3,1637.71 1411.84,1641.35C1416.19,1645.85 1419.1,1652.77 1419.45,1659.34C1419.79,1665.66 1418.71,1671.85 1416.56,1675.82C1414.1,1680.36 1410.34,1682.72 1405.87,1682.72L1260.32,1682.72C1256.57,1682.72 1253.53,1679.67 1253.53,1675.92C1253.53,1672.17 1256.57,1669.13 1260.32,1669.13L1404.65,1669.13C1404.88,1668.63 1405.19,1667.89 1405.33,1667.32C1405.86,1665.19 1406.02,1662.64 1405.88,1660.07C1405.73,1657.21 1404.68,1654.21 1403.02,1651.94C1401.95,1650.48 1400.71,1649.16 1399.05,1649.16C1394.88,1649.16 1289.23,1649.1 1279.92,1649.1C1276.98,1649.1 1273.94,1648 1271.26,1645.59C1267.2,1641.94 1263.62,1634.5 1264.16,1624.3C1264.53,1617.41 1268.24,1611.34 1273.44,1607.09C1278.46,1602.98 1284.79,1600.67 1290.21,1600.67L1378.29,1600.67C1378.44,1600.35 1378.63,1599.92 1378.73,1599.59C1379.12,1598.27 1379.3,1596.74 1379.31,1595.14C1379.32,1593.89 1379.22,1592.61 1379.02,1591.36C1378.95,1590.92 1378.93,1590.48 1378.94,1590.06ZM1164.83,2096.41C1168.58,2096.41 1171.63,2099.46 1171.63,2103.21C1171.63,2106.96 1168.58,2110 1164.83,2110L1140.21,2110C1136.73,2110 1132.49,2108.45 1128.74,2105.47C1123.73,2101.48 1119.67,2095.03 1119.34,2088.22C1118.84,2077.8 1126.05,2063.81 1143.28,2063.81C1143.42,2063.81 1147.3,2063.81 1208.22,2063.81C1211.97,2063.81 1215.02,2066.86 1215.02,2070.61C1215.02,2074.36 1211.97,2077.4 1208.22,2077.4C1147.3,2077.4 1143.42,2077.4 1143.28,2077.4C1135.96,2077.4 1132.7,2083.14 1132.92,2087.56C1133.06,2090.49 1135.06,2093.12 1137.21,2094.84C1138.24,2095.66 1139.25,2096.41 1140.21,2096.41L1164.83,2096.41ZM1539.08,2096.41C1542.83,2096.41 1545.88,2099.46 1545.88,2103.21C1545.88,2106.96 1542.83,2110 1539.08,2110L1502.58,2110C1498.83,2110 1495.79,2106.96 1495.79,2103.21C1495.79,2099.46 1498.83,2096.41 1502.58,2096.41L1539.08,2096.41ZM1041.84,1748.5C1043.94,1750.41 1046.17,1752.23 1049.02,1754.15C1054.68,1757.97 1067.61,1766.49 1074.36,1767.53C1074.57,1767.56 1483.52,1766.84 1566.05,1767.27C1574.55,1767.31 1579.7,1767.38 1580.72,1767.44C1583.15,1767.6 1584.29,1768.63 1584.51,1768.8C1587.27,1770.85 1588.74,1773.3 1589.38,1775.86C1590.22,1779.16 1589.62,1782.91 1587.54,1786.7C1584.28,1792.63 1576.8,1799.1 1571.64,1802.98C1563.3,1809.27 1550.75,1814.11 1535.7,1815.04C1535.12,1815.07 1200.65,1814.68 1133.51,1815.1C1132.2,1815.11 1130.97,1815.12 1129.84,1815.13C1132.36,1818.11 1135.97,1820.75 1138.77,1822.67C1146.04,1827.65 1158.42,1833.83 1170.45,1834.72C1171.38,1834.79 1442.13,1834.44 1496.4,1834.45C1501.9,1834.46 1505.2,1834.46 1505.82,1834.47C1508.21,1834.51 1509.31,1835.43 1509.37,1835.48C1513.66,1838.1 1515.3,1842.81 1512.8,1848.95C1510.3,1855.07 1502.02,1863.95 1496.63,1868.42C1491.32,1872.82 1481.99,1877.79 1474.22,1879.58C1470.49,1880.44 1467.04,1880.56 1464.26,1879.98C1463.14,1879.98 1460.71,1879.97 1457.67,1879.97C1415.07,1879.92 1202.82,1879.88 1202.23,1879.95C1199.64,1880.22 1197.31,1881.99 1195.41,1884.04C1193.31,1886.31 1191.72,1889.06 1191.29,1891.49C1190.9,1893.72 1190.7,1896.1 1190.9,1898.21C1190.95,1898.75 1191.12,1899.48 1191.26,1900.01C1207.74,1900.07 1423.21,1899.74 1468.12,1899.83C1474.44,1899.84 1477.98,1900.08 1478.07,1900.1C1488.52,1902.91 1498.29,1906.75 1501.7,1921.1C1503.49,1928.62 1501.3,1937.42 1497.6,1942.05C1495,1945.3 1491.67,1946.9 1488.29,1946.9C1487.98,1946.9 1185.52,1946.86 1185.22,1946.88C1179.91,1947.28 1173.78,1949.46 1172.84,1956.22C1172.44,1959.11 1173.82,1961.84 1175.54,1963.59C1176.07,1964.13 1177.1,1964.75 1177.3,1964.86C1185.61,1964.85 1437.53,1964.71 1488.95,1964.82C1494.27,1964.83 1497.48,1964.84 1498.11,1964.86C1499.42,1964.89 1500.1,1965.18 1500.21,1965.21C1508.04,1967.84 1516.32,1971.51 1520.27,1983.21C1523.1,1991.59 1521.28,2002.16 1517.85,2006.93C1515.01,2010.88 1511.29,2012.33 1507.41,2011.45C1507.2,2011.45 1506.96,2011.44 1506.71,2011.44C1497.09,2011.4 1445.99,2011.39 1375.2,2011.39C1371.45,2011.39 1368.4,2008.34 1368.4,2004.59C1368.4,2000.84 1371.45,1997.8 1375.2,1997.8C1446.02,1997.8 1497.15,1997.81 1506.77,1997.85C1506.87,1997.85 1506.98,1997.86 1507.08,1997.86C1507.56,1995.61 1508.42,1990.61 1507.39,1987.55C1505.38,1981.58 1500.97,1979.82 1496.89,1978.44C1495.51,1978.43 1492.58,1978.41 1488.92,1978.41C1436.69,1978.3 1177.55,1978.45 1177.16,1978.45C1173.61,1978.47 1169.33,1976.67 1165.84,1973.12C1161.5,1968.69 1158.36,1961.66 1159.38,1954.35C1161.35,1940.16 1173.06,1934.17 1184.2,1933.33C1184.49,1933.31 1466.59,1933.31 1487.11,1933.31C1487.36,1932.92 1487.72,1932.32 1487.9,1931.84C1488.76,1929.63 1489.08,1926.78 1488.48,1924.24C1486.65,1916.55 1480.98,1914.95 1475.36,1913.45C1474.18,1913.44 1471.48,1913.42 1468.09,1913.42C1421,1913.33 1188.07,1913.42 1187.6,1913.33C1183.22,1912.45 1180.05,1909.43 1178.43,1904.7C1177,1900.51 1176.95,1894.55 1177.9,1889.14C1178.72,1884.51 1181.44,1879.13 1185.43,1874.82C1189.61,1870.29 1195.11,1867.03 1200.81,1866.43C1201.4,1866.37 1414.84,1866.33 1457.68,1866.38C1463.68,1866.38 1467.01,1866.67 1467.04,1866.68C1468.72,1867.18 1471.06,1866.48 1473.58,1865.66C1478.83,1863.96 1484.51,1860.81 1487.96,1857.95C1490.79,1855.61 1494.7,1851.77 1497.56,1848.05C1497.18,1848.05 1496.79,1848.04 1496.4,1848.04C1441.96,1848.03 1170.38,1848.34 1169.45,1848.27C1154.91,1847.19 1139.87,1839.9 1131.09,1833.88C1126.52,1830.75 1120.51,1826 1117.27,1820.97C1114.01,1815.91 1113.19,1810.52 1115.75,1805.43C1115.92,1805.08 1117.13,1802.02 1121.42,1801.68C1122.22,1801.62 1126.43,1801.55 1133.42,1801.51C1200.44,1801.09 1534.29,1801.51 1534.88,1801.47C1546.82,1800.74 1556.84,1797.11 1563.47,1792.13C1566.81,1789.61 1571.52,1785.82 1574.44,1781.95C1574.66,1781.66 1574.89,1781.3 1575.1,1780.94C1572.71,1780.91 1569.57,1780.88 1565.98,1780.86C1483.11,1780.43 1072.5,1781 1072.29,1780.96C1064.15,1779.71 1048.25,1770.02 1041.42,1765.42C1033.09,1759.8 1029.57,1755.08 1020.51,1746.75C1018.32,1744.74 1018.05,1742.48 1018.44,1740.47C1018.61,1739.59 1019.24,1735.94 1023.86,1735.07C1023.93,1735.06 1024.37,1734.96 1025.18,1734.95C1026.27,1734.93 1032.27,1734.92 1042.27,1734.9C1141.84,1734.79 1640.44,1734.94 1640.86,1734.96C1644.31,1735.12 1649.34,1732.14 1649.51,1726.8C1649.61,1723.35 1648.85,1720.24 1647.32,1718.1C1646.61,1717.1 1645.78,1716.24 1644.67,1716.37C1642.73,1716.61 1019.68,1716.42 1019.68,1716.42C1015.93,1716.42 1012.88,1713.38 1012.89,1709.63C1012.89,1705.88 1015.93,1702.83 1019.68,1702.83C1019.68,1702.83 1641.1,1703.12 1643.03,1702.88C1647.96,1702.28 1652.54,1704.01 1656.17,1707.59C1660.4,1711.79 1663.34,1718.91 1663.09,1727.21C1662.66,1741.25 1649.31,1748.95 1640.23,1748.54C1639.82,1748.52 1141.75,1748.38 1042.29,1748.5L1041.84,1748.5ZM1509.55,1998.04C1510.29,1998.15 1510.67,1998.27 1510.69,1998.27C1510.3,1998.13 1509.92,1998.06 1509.55,1998.04ZM1252.1,2030.78C1255.85,2030.78 1258.9,2033.83 1258.9,2037.58C1258.9,2041.33 1255.85,2044.37 1252.1,2044.38C1182.07,2044.38 1156.73,2044.38 1156.32,2044.38C1152.14,2044.38 1147.86,2042.42 1144.51,2038.78C1140.39,2034.29 1137.7,2027.18 1138.81,2019.61C1140.61,2007.47 1152.74,1998.41 1164.34,1997.88C1165.05,1997.84 1218.66,1997.81 1295.96,1997.8C1299.72,1997.8 1302.76,2000.85 1302.76,2004.6C1302.76,2008.35 1299.72,2011.39 1295.97,2011.39C1219.03,2011.4 1165.67,2011.42 1164.97,2011.45C1159.34,2011.71 1153.13,2015.71 1152.26,2021.59C1151.87,2024.26 1152.54,2026.79 1153.8,2028.66C1154.51,2029.73 1155.28,2030.79 1156.32,2030.79C1156.73,2030.79 1182.07,2030.79 1252.1,2030.78ZM1528.31,2063.82C1528.48,2063.6 1528.93,2062.99 1529.14,2062.53C1530.15,2060.23 1530.41,2057.07 1530,2053.56C1529.79,2051.84 1528.69,2050.27 1527.33,2048.91C1524.8,2046.36 1521.19,2044.51 1517.84,2044.38C1517.42,2044.36 1489.25,2044.36 1418.04,2044.37C1414.29,2044.37 1411.24,2041.32 1411.24,2037.57C1411.24,2033.82 1414.29,2030.78 1418.04,2030.78C1489.64,2030.77 1517.95,2030.78 1518.38,2030.8C1524.89,2031.06 1532.05,2034.38 1536.97,2039.32C1540.57,2042.94 1542.95,2047.39 1543.5,2051.97C1544.41,2059.72 1542.87,2066.47 1540.11,2070.74C1537.39,2074.93 1533.52,2077.21 1529.09,2077.39C1528.95,2077.4 1523.39,2077.4 1460.53,2077.4C1456.78,2077.4 1453.74,2074.36 1453.74,2070.61C1453.74,2066.86 1456.78,2063.81 1460.53,2063.81C1517.01,2063.81 1526.85,2063.82 1528.31,2063.82ZM1731.18,1336.39L1731.18,2182.77L1807.12,2182.77L1807.12,1336.39L1731.18,1336.39ZM1320.36,1388.32C1319.53,1388.43 1318.67,1388.49 1317.79,1388.49L971.992,1388.49L971.992,1439.12L1315.66,1439.12C1317.3,1439.12 1318.88,1439.33 1320.36,1439.72L1320.36,1388.32ZM1345.67,1498.57L1383.66,1555.48L1421.61,1498.57L1421.61,1375.85C1421.61,1354.89 1404.59,1337.9 1383.66,1337.9C1362.69,1337.9 1345.67,1354.89 1345.67,1375.85L1345.67,1498.57ZM1446.89,1388.49L1446.89,1439.12L1705.91,1439.12L1705.91,1388.49L1446.89,1388.49Z"/>
        </g>
    </g>
</svg>
