<svg xml:space="preserve" width="2em" height="2em" fill="currentColor" fill-rule="evenodd" stroke-linejoin="round" stroke-miterlimit="2" clip-rule="evenodd" viewBox="0 0 1211 1115" xmlns="http://www.w3.org/2000/svg"><path d="M1194.9 1115H15.5C7 1115 0 1106.4 0 1095.7V19.3C0 8.6 7 0 15.5 0h124.2c8.5 0 15.5 8.6 15.5 19.3v52h424q2.4 0 4.7.5a77.7 77.7 0 0 1 152.1-.5h319.2v-52c0-10.7 7-19.3 15.5-19.3H1195c8.5 0 15.4 8.6 15.4 19.3v1076.4c0 10.7-6.9 19.3-15.4 19.3m-1071-38.5V38.5H31v1038zm31-54.7v62h900.1v-62zm499.1-672.2a16 16 0 0 1-7.1-5.8l-62-93.1a16 16 0 0 1-2.6-8.6v-47.4a23 23 0 0 1-5.8.8H155.2v795.3h900V195.5H737.6V242c0 3-1 6-2.6 8.6l-62.1 93a15 15 0 0 1-2.6 3l.5 1.9c1.2 7.8.3 16.1-2.4 21.5q-4.6 9.1-13.8 9.2H545.4c-3.2 0-7 1.6-10 4a13 13 0 0 0-5.3 9.2 21 21 0 0 0 2 11.2l1.3 1.6 145.5.1a22 22 0 0 1 15.7 7 36 36 0 0 1 9.3 22.2c.4 7.7-.9 15.3-3.5 20.2-3 5.5-7.7 8.4-13.1 8.4H508.8a8.3 8.3 0 0 1-8.4-8.3 8.3 8.3 0 0 1 8.4-8.3h177l.8-2.3q.9-4 .7-8.8-.4-5.6-3.5-10c-1.3-1.8-2.9-3.4-4.9-3.4l-146.1-.1q-5.5 0-10.6-4.3c-5-4.5-9.4-13.6-8.7-26.1.4-8.5 5-16 11.4-21.1a34 34 0 0 1 20.5-7.9h108l.6-1.3q.7-2.4.7-5.5l-.4-4.6zm-262.6 621a8.3 8.3 0 0 1 0 16.6h-30.2a24 24 0 0 1-14.1-5.5 30 30 0 0 1-11.5-21.2c-.6-12.8 8.2-30 29.3-30h80a8.3 8.3 0 0 1 0 16.7h-79.7c-9 0-13 7-12.7 12.5.2 3.6 2.7 6.8 5.3 9q1.8 1.7 3.7 1.9zm459 0a8.3 8.3 0 0 1 0 16.6h-44.8a8.3 8.3 0 0 1 0-16.7zM240.7 543.9a75 75 0 0 0 8.8 7c7 4.6 22.8 15 31.1 16.3.3 0 501.8-.8 603-.3 10.4 0 16.7.2 18 .2 3 .2 4.4 1.5 4.6 1.7q5 3.8 6 8.7 1.5 6.2-2.2 13.2a77 77 0 0 1-19.5 20 82 82 0 0 1-44.1 14.8c-.7 0-411-.4-493.2 0l-4.6.1a86 86 0 0 0 49.8 24c1.2.1 333.2-.3 399.8-.3h11.5c3 0 4.3 1.2 4.4 1.3 5.3 3.2 7.3 9 4.2 16.5a75 75 0 0 1-47.3 37.6q-7 1.6-12.2.4H437.5c-3.1.3-6 2.5-8.3 5a20 20 0 0 0-5 9.2 32 32 0 0 0-.6 8.2q.1 1.2.5 2.2c20.2 0 284.4-.3 339.5-.2q11.9.1 12.2.3c12.8 3.5 24.8 8.2 29 25.8 2.2 9.2-.5 20-5 25.7q-5 6-11.5 6l-371.6-.1c-6.5.5-14 3.1-15.2 11.4a11 11 0 0 0 5.5 10.6h393.4q2.4.2 2.6.5c9.6 3.2 19.7 7.7 24.6 22a37 37 0 0 1-3 29.1q-5.4 7.2-12.8 5.6h-.9l-161.3-.1a8.3 8.3 0 0 1 0-16.7H811l.4.1c.6-2.8 1.6-8.9.4-12.6-2.5-7.4-8-9.5-13-11.2h-9.7c-64-.2-381.8 0-382.3 0-4.4 0-9.6-2.2-13.9-6.5-5.3-5.5-9.2-14-8-23 2.5-17.5 16.9-24.8 30.5-25.8H787l1-1.9c1-2.7 1.4-6.2.7-9.3-2.3-9.4-9.2-11.4-16.1-13.2h-9c-57.7-.2-343.3 0-344-.2q-8-1.6-11.2-10.5a41 41 0 0 1-.6-19.1c1-5.7 4.3-12.3 9.2-17.6a31 31 0 0 1 18.9-10.3h315q11.2.1 11.5.3c2 .6 5-.2 8-1.2a58 58 0 0 0 29.4-21.6h-1.4l-401 .3a104 104 0 0 1-47-17.7c-5.6-3.8-13-9.7-17-15.8s-5-12.8-1.8-19c.2-.5 1.7-4.3 7-4.7l14.6-.2c82.2-.5 491.7 0 492.4 0a66 66 0 0 0 48.5-24l.8-1.2-11.2-.1c-101.6-.5-605.2.2-605.4.1-10-1.5-29.5-13.4-37.9-19-10.2-7-14.5-12.7-25.6-23a8 8 0 0 1-2.6-7.7c.2-1 1-5.5 6.7-6.6l1.6-.1h21c122-.2 733.5 0 734 0 4.3.2 10.4-3.5 10.7-10q0-6.5-2.7-10.7c-.9-1.2-2-2.3-3.3-2.1-2.4.3-766.4 0-766.4 0a8.3 8.3 0 1 1 0-16.6s762 .3 764.4 0c6-.7 11.7 1.4 16.1 5.8a33 33 0 0 1 8.5 24c-.5 17.3-16.9 26.7-28 26.2-.5 0-611.3-.2-733.3 0zm573.6 306 1.4.3zm-315.7 40.2a8.3 8.3 0 0 1 0 16.7H381.2a20 20 0 0 1-14.5-7 29 29 0 0 1-7-23.4c2.3-15 17.1-26 31.4-26.7h161.4a8.3 8.3 0 0 1 8.3 8.3 8.3 8.3 0 0 1-8.3 8.3H391.8c-6.9.4-14.5 5.3-15.6 12.5q-.5 5.1 2 8.7c.8 1.3 1.7 2.6 3 2.6zm338.7 40.5q.5-.6 1-1.6 2-4.4 1-11-.5-3.2-3.2-5.7a18 18 0 0 0-11.6-5.5H702.2a8.3 8.3 0 0 1 0-16.7h123a36 36 0 0 1 22.8 10.4 27 27 0 0 1 8 15.6c1.2 9.5-.7 17.7-4.1 23q-5.1 7.8-13.5 8.1h-84.1a8.3 8.3 0 0 1 0-16.7zm248.8-892v1038h93.1V38.5zm-503.8 63.7-3.2.2h-424v62h421.4q3 0 5.8.8zm31 135.2 46.6 69.8 46.6-69.8V86.9a46.6 46.6 0 0 0-93.2 0zm124.2-135v62h317.6v-62z"/></svg>