<svg xml:space="preserve" width="2em" height="2em" fill="currentColor" fill-rule="evenodd" stroke-linejoin="round" stroke-miterlimit="2" clip-rule="evenodd" viewBox="0 0 17288 17288" xmlns="http://www.w3.org/2000/svg"><path d="M8219.4 591 9997.8 59.3l-454.3 1131.6a107 107 0 0 0-3.7 70.4 105 105 0 0 0 41 56 107 107 0 0 0 67.5 19.5 106 106 0 0 0 64.4-27.4c90.4-81 182-178.6 271.2-273.7 78.7-83.8 155.6-165.8 234-238.7l100.4-41 1854.8-53.2-731.2 974.9a107 107 0 0 0-21.8 67.1c.6 22.2 9.2 45 25.7 64.7a106 106 0 0 0 59.4 36.4c22.4 4.6 46.8 1.5 69.6-10.1 112.8-57 224.4-126.3 333.2-193.8 98.7-61.3 195.3-121.3 287.7-170.2l107-13.9 1806.6 429-959.8 753.2a106 106 0 0 0-38.7 58.2l.5.1c-5.2 22.3-3 46.8 7.8 69.7l-.5.3a106 106 0 0 0 48 50.5l.3-.5a107 107 0 0 0 69.9 8.6c117.6-24.8 246.3-63.7 371.5-101.6 108-32.7 213.5-64.7 322.5-89.7l107 14.5 1633.8 881.7-1122 479.2a105 105 0 0 0-51.8 46.2 107 107 0 0 0-10.5 69.8 106 106 0 0 0 33 61.2c17.1 15 39.6 24.5 64.8 25.9 126.2 6.8 257.8 2.6 385.8-1.5 115.2-3.7 227.7-7.4 334.6-3.5l99.8 41.5 1350 1274.6-1207.1 172.4c-25.1 3.6-46.9 15-62.6 31.6a105 105 0 0 0-27.5 63.7 106 106 0 0 0 16 68 106 106 0 0 0 55.8 41.9c117.7 38.5 246.9 68.8 372.8 98.2 110.1 25.8 217.9 51 323.9 83.6l85.4 66.1 974 1580.5-1210.4-145.9a107 107 0 0 0-69.2 14.3 105 105 0 0 0-43.3 54.1 107 107 0 0 0-1.8 70.6 105 105 0 0 0 43 54.5c105.7 69 221.8 131 334.8 191.5 100.3 53.7 198.3 106.2 291.3 164.5l66.1 86 531.7 1778.4-1131.6-454.3a107 107 0 0 0-70.4-3.8 105 105 0 0 0-56 41 107 107 0 0 0-19.5 67.6 106 106 0 0 0 27.4 64.4c81 90.3 178.6 182 273.6 271.1 84 78.7 166 155.7 238.8 234l41 100.5 53.2 1854.8-974.9-731.3a107 107 0 0 0-67-21.7c-22.3.5-45 9.2-64.7 25.7a106 106 0 0 0-36.5 59.3 107 107 0 0 0 10.1 69.7c57 112.8 126.4 224.4 193.9 333.2 61.2 98.7 121.2 195.3 170.1 287.6l13.9 107.1-429 1806.6-753.2-959.8a106 106 0 0 0-58.1-38.7l-.2.5c-22.3-5.3-46.7-3-69.7 7.7l-.2-.5a106 106 0 0 0-50.6 48.4 107 107 0 0 0-8 69.9c24.7 117.5 63.6 246.2 101.5 371.5 32.7 108 64.7 213.5 89.7 322.4l-14.5 107-881.7 1633.8-479.2-1122c-9.8-23.1-26.3-41-46.2-51.7a106 106 0 0 0-69.7-10.5 105 105 0 0 0-61.2 33 106 106 0 0 0-26 64.8c-6.8 126.2-2.5 257.7 1.5 385.8 3.8 115.2 7.4 227.7 3.5 334.6l-41.5 99.8-1274.6 1350-172.4-1207c-3.5-25.2-15-47-31.6-62.7a105 105 0 0 0-63.6-27.5c-26-2.3-49.8 3.8-68.5 16.1a105 105 0 0 0-41.4 55.8c-38.6 117.6-68.9 246.8-98.3 372.7-25.8 110.1-51 217.8-83.6 323.9l-66.2 85.4-1580.4 974 145.9-1210.3c3-25.6-2.3-49.7-14.3-69.2a105 105 0 0 0-54.2-43.3c-24.1-8.8-48.8-9-70.6-1.8a105 105 0 0 0-54.4 43c-69 105.7-131 221.7-191.6 334.7-53.6 100.2-106 198.2-164.4 291.2l-86 66.2-1778.3 531.6 454.2-1131.5a107 107 0 0 0 3.8-70.5 105 105 0 0 0-41-56 107 107 0 0 0-67.6-19.5 106 106 0 0 0-64.4 27.4c-90.3 81-182 178.6-271.2 273.7-78.6 83.9-155.6 165.9-234 238.8l-100.4 40.9L5113 16586l731.2-974.8a107 107 0 0 0 21.9-67.2c-.6-22.2-9.3-45-25.8-64.6a106 106 0 0 0-59.4-36.4 107 107 0 0 0-69.5 10c-112.8 57.1-224.5 126.4-333.2 193.9-98.8 61.3-195.3 121.2-287.8 170.2l-107 13.8-1806.5-428.9 959.8-753.3a107 107 0 0 0 38.7-58.1l-.6-.2a106 106 0 0 0-7.7-69.7l.5-.2a106 106 0 0 0-48.1-50.5l-.3.5a107 107 0 0 0-69.9-8.6c-117.5 24.7-246.2 63.7-371.4 101.6-108 32.7-213.6 64.6-322.5 89.6l-107-14.4-1633.8-881.7 1122-479.2a105 105 0 0 0 51.7-46.3c11-20 15-44.4 10.5-69.7a105 105 0 0 0-33-61.2 105 105 0 0 0-64.7-25.9c-126.3-6.8-257.8-2.6-385.9 1.5-115.1 3.7-227.6 7.3-334.6 3.5l-99.8-41.6-1350-1274.6 1207.2-172.3c25-3.6 46.8-15 62.6-31.7a105 105 0 0 0 27.5-63.6c2.2-25.7-3.8-49.3-16.1-68a106 106 0 0 0-55.8-42c-117.6-38.4-246.9-68.7-372.7-98.2-110.2-25.7-218-51-324-83.5L974 11138 0 9557.6l1210.4 146a107 107 0 0 0 69.2-14.3 105 105 0 0 0 43.3-54.2 107 107 0 0 0 1.8-70.6 105 105 0 0 0-43-54.5C1176 9441.1 1060 9379 947 9318.5c-100.3-53.7-198.4-106.2-291.3-164.4l-66.2-86L57.8 7289.6 1189.5 7744a107 107 0 0 0 70.4 3.8 105 105 0 0 0 56-41 107 107 0 0 0 19.5-67.6 106 106 0 0 0-27.4-64.4c-81-90.4-178.6-182-273.7-271.2-83.9-78.7-165.9-155.6-238.8-234l-40.9-100.4-53.2-1854.9 974.8 731.3a107 107 0 0 0 67.1 21.8c22.3-.6 45-9.2 64.7-25.7 19.5-16.4 32-37.4 36.4-59.4 4.6-22.3 1.5-46.8-10-69.6-57.1-112.8-126.4-224.4-194-333.3-61.2-98.7-121.1-195.2-170-287.6l-14-107 429-1806.6 753.2 959.8a106 106 0 0 0 58.2 38.7l.1-.6a107 107 0 0 0 69.7-7.6l.3.5c23-10.8 40.4-28 50.6-48.4a107 107 0 0 0 8-70c-24.7-117.5-63.7-246.1-101.6-371.4-32.7-108-64.6-213.5-89.6-322.4l14.4-107.1 881.7-1633.8 479.2 1122a105 105 0 0 0 46.2 51.7 107 107 0 0 0 69.8 10.5 105 105 0 0 0 61.2-33c15-17 24.5-39.5 25.9-64.7 6.8-126.2 2.6-257.8-1.5-385.9-3.7-115-7.3-227.6-3.4-334.5l41.5-99.9 1274.5-1350 172.4 1207.1a106 106 0 0 0 31.7 62.6 105 105 0 0 0 63.6 27.5 107 107 0 0 0 68.5-16 105 105 0 0 0 41.4-55.8c38.5-117.6 68.8-246.9 98.3-372.8 25.8-110 51-217.8 83.6-323.8l66.1-85.4L7730 1.5l-146 1210.3c-3 25.6 2.4 49.7 14.4 69.2a105 105 0 0 0 54.1 43.3 107 107 0 0 0 70.6 1.8 105 105 0 0 0 54.4-43c69-105.7 131.1-221.7 191.6-334.7 53.6-100.4 106-198.4 164.3-291.4zM9476 535.8 8364 868.2a6330 6330 0 0 0-123.5 223.8c-64.3 120-130.3 243.4-204.8 357.5a411 411 0 0 1-487.1 162.8A411 411 0 0 1 7279 1175l69.7-578.6-987.2 608.4c-21.3 76.6-41.3 162-61.7 249-30.7 131.4-62.4 266.4-105.5 398a413 413 0 0 1-428.6 283.6 412 412 0 0 1-373.2-353.6l-82.3-576-796.4 843.6c-.9 81.4 2 168.3 4.8 256.8 4.3 135.9 8.8 275.5 1.5 411.1a412 412 0 0 1-341 385.3 411 411 0 0 1-451.6-245L3499 2322l-550.8 1020.6a6483 6483 0 0 0 71.3 246.8c38.6 127.6 78.3 258.7 107.6 397.9a411 411 0 0 1-229.7 458.9v.5a412 412 0 0 1-270.6 28.2v-.7a412 412 0 0 1-229.1-147l-359.4-457.8-268 1128.6c40.4 72 85.8 145.1 132 219.5 71.9 116 145.7 234.9 207 356.2a411 411 0 0 1-103.3 503 411 411 0 0 1-513.2 13.5L1027.2 5741l33.3 1159.7c57 58.4 120.5 118 185.2 178.6 97.5 91.5 197.7 185.5 291.7 290.3a412 412 0 0 1 105.6 251c5.4 90-19.3 181.8-74.8 261.2a413 413 0 0 1-220.9 160.1 411 411 0 0 1-271.3-13.4l-540.1-216.8 332.4 1112a6353 6353 0 0 0 223.9 123.5c120 64.3 243.4 130.3 357.5 204.8a411 411 0 0 1 162.8 487.1 411 411 0 0 1-437.3 269.4l-578.7-69.8 608.4 987.3c76.6 21.3 162 41.3 249 61.7 131.5 30.7 266.5 62.3 398 105.5a411 411 0 0 1 283.7 428.6A411 411 0 0 1 1782 11895l-576 82.3 843.5 796.4c81.4.9 168.3-2 256.8-4.8 135.9-4.3 275.5-8.8 411.1-1.5a412 412 0 0 1 385.3 341 411 411 0 0 1-245 451.6l-535.6 228.7 1020.7 550.8a6499 6499 0 0 0 246.8-71.3c127.6-38.6 258.7-78.3 397.9-107.6 94.7-20 188.9-6.5 269.6 33.8v.7a412 412 0 0 1 189.3 195.2h.5a412 412 0 0 1 28.2 270.6h-.7a412 412 0 0 1-147 229.1l-457.8 359.4 1128.5 268c72-40.5 145.1-85.9 219.6-132 115.9-72 234.8-145.8 356-207.1a411.6 411.6 0 0 1 503.1 103.3 411 411 0 0 1 13.5 513.2l-349.3 465.7 1159.7-33.3c58.3-57 117.9-120.5 178.5-185 91.5-97.7 185.5-197.9 290.4-291.9a412 412 0 0 1 250.8-105.5c90.2-5.4 182 19.2 261.4 74.8a413 413 0 0 1 160 220.8 411 411 0 0 1-13.3 271.3l-216.9 540.1 1112-332.4a6351 6351 0 0 0 123.5-223.8c64.3-120 130.4-243.4 204.9-357.5a411 411 0 0 1 487.1-162.8 411 411 0 0 1 269.4 437.4l-69.8 578.5 987.2-608.4c21.4-76.5 41.4-162 61.7-249 30.8-131.4 62.4-266.4 105.6-398a413 413 0 0 1 428.6-283.5 411.5 411.5 0 0 1 373.2 353.5l82.3 576 796.4-843.6c.8-81.4-2-168.3-4.8-256.8-4.4-135.9-8.8-275.5-1.5-411a412 412 0 0 1 341-385.3 411 411 0 0 1 451.6 245l228.7 535.5 550.8-1020.7a6456 6456 0 0 0-71.3-246.7c-38.6-127.7-78.3-258.8-107.6-398a411.4 411.4 0 0 1 229.7-458.8v-.6a412 412 0 0 1 270.6-28.1v.6a412 412 0 0 1 229.1 147l359.4 457.9 267.9-1128.6c-40.4-72-85.8-145-132-219.5-71.9-116-145.7-234.9-207-356.1a411.4 411.4 0 0 1 103.3-503.1 411 411 0 0 1 513.2-13.5l465.7 349.3-33.3-1159.7a6098 6098 0 0 0-185.2-178.5c-97.6-91.6-197.8-185.6-291.7-290.4a412 412 0 0 1-105.6-250.9c-5.4-90 19.3-182 74.8-261.3a413 413 0 0 1 220.9-160 411 411 0 0 1 271.3 13.3l540.1 216.9-332.4-1112a6383 6383 0 0 0-223.9-123.6c-120-64.3-243.4-130.3-357.5-204.8a413 413 0 0 1-167-215.6 411 411 0 0 1 4.2-271.5 411 411 0 0 1 437.3-269.3l578.7 69.7-608.4-987.2c-76.6-21.4-162-41.4-249-61.7-131.5-30.8-266.5-62.4-398.1-105.5-92-30.2-167-89-217-164.7-50.1-76-75-168-66.6-264a411.6 411.6 0 0 1 353.6-373.2l576-82.3-843.5-796.3c-81.4-1-168.3 1.9-256.8 4.7-136 4.4-275.5 8.8-411.2 1.5a412.5 412.5 0 0 1-385.3-340.9 411.4 411.4 0 0 1 245.1-451.6l535.5-228.7-1020.6-550.9c-76.6 19.8-161 45.3-246.8 71.3-127.6 38.6-258.7 78.3-398 107.6a412 412 0 0 1-269.5-33.8v-.6a412 412 0 0 1-189.3-195.3h-.6a412 412 0 0 1-28-270.6h.5a412 412 0 0 1 147-229l458-359.5-1128.6-267.9a5964 5964 0 0 0-219.6 132c-115.9 72-234.8 145.7-356 207a411.5 411.5 0 0 1-503.1-103.2 411 411 0 0 1-13.5-513.2l349.3-465.8-1159.7 33.3a6073 6073 0 0 0-178.5 185.1c-91.6 97.6-185.6 197.8-290.4 291.8a412 412 0 0 1-251 105.6 412 412 0 0 1-261.2-74.8 413 413 0 0 1-160-220.9A411 411 0 0 1 9259 1076z"/><path d="M8643 2129.2c1799.2 0 3428 729.2 4607 1908.3s1908.3 2807.9 1908.3 4607-729.2 3428-1908.3 4607-2807.8 1908.3-4607 1908.3c-1799 0-3428-729.3-4607-1908.3s-1908.3-2808-1908.3-4607 729.3-3428 1908.3-4607 2808-1908.3 4607-1908.3m4389.3 2126C11909 3132 10357.1 2437.2 8643 2437.2c-1714 0-3266 694.7-4389.2 1818-1123.3 1123.3-1818.1 2675.1-1818.1 4389.3s694.8 3266 1818 4389.2C5377 14157 6929 14851.8 8643 14851.8s3266-694.8 4389.3-1818 1818-2675.2 1818-4389.3-694.7-3266-1818-4389.3"/><path d="m8762.9 6441.7 496 1566.1h1602.8a125 125 0 0 1 74.7 225.3L9637 9201.7l496.7 1568.6a125 125 0 0 1-193.8 138l-1296-966.2-1296.2 966.2a125 125 0 0 1-193.8-138l496.7-1568.6L6351 8233.1a125 125 0 0 1 74.8-225.3h1602.8l496-1566a125 125 0 0 1 238.3 0m-119.2 37.7-523.5 1653.3H6425.8l1370.7 1021.9L7273 10808l1370.8-1021.8 1370.8 1021.8L9491 9154.7l1370.8-1021.9H9167.3z"/><path d="M8643.7 7002.4 9055 8288.1h1330.5L9309 9082.7l411.1 1285.7-1076.4-794.6-1076.4 794.6 411.2-1285.7L6902 8288.1h1330.5z"/></svg>