<?xml version="1.0" encoding="UTF-8" standalone="no"?>
<!DOCTYPE svg PUBLIC "-//W3C//DTD SVG 1.1//EN" "http://www.w3.org/Graphics/SVG/1.1/DTD/svg11.dtd">
<svg width="100%" height="100%" viewBox="0 0 463 421" version="1.1" xmlns="http://www.w3.org/2000/svg" xmlns:xlink="http://www.w3.org/1999/xlink" xml:space="preserve" xmlns:serif="http://www.serif.com/" style="fill-rule:evenodd;clip-rule:evenodd;stroke-linejoin:round;stroke-miterlimit:2;">
    <g transform="matrix(1,0,0,1,-147.608,-150.623)">
        <g id="Layer1">
        </g>
        <g transform="matrix(1,0,0,1,-684.796,-358.669)">
            <g transform="matrix(0.281456,0,0,0.288778,738.354,552.177)">
                <path d="M960.425,659.881L404.808,659.881C399.269,672.818 386.162,681.92 370.891,681.92C350.616,681.92 334.156,665.877 334.156,646.116C334.156,626.356 350.616,610.313 370.891,610.313C386.162,610.313 399.269,619.415 404.808,632.351L922.533,632.351L839.911,572.323L548.749,572.323L548.749,296.829C535.476,291.43 526.138,278.656 526.138,263.772C526.138,244.012 542.598,227.969 562.872,227.969C583.147,227.969 599.607,244.012 599.607,263.772C599.607,278.656 590.268,291.43 576.995,296.829L576.995,544.793L802.019,544.793L759.467,513.877C749.646,506.741 745.62,494.276 749.477,482.944C753.334,471.612 764.205,463.963 776.455,463.963L1030.78,463.963L1030.78,155.44L938.567,155.44L938.567,-78.839C924.156,-83.679 913.792,-97.019 913.792,-112.699C913.792,-132.459 930.252,-148.502 950.526,-148.502C970.801,-148.502 987.261,-132.459 987.261,-112.699C987.261,-97.019 976.896,-83.679 962.485,-78.839L962.485,132.129L1054.7,132.129L1054.7,432.396L1127.4,208.637C1129.77,201.356 1135.02,195.551 1141.7,192.266L1141.7,-78.839C1127.29,-83.679 1116.92,-97.019 1116.92,-112.699C1116.92,-132.459 1133.38,-148.502 1153.66,-148.502C1173.93,-148.502 1190.39,-132.459 1190.39,-112.699C1190.39,-97.019 1180.03,-83.679 1165.62,-78.839L1165.62,191.501C1173.09,194.599 1179.04,200.753 1181.6,208.637C1181.6,208.637 1229.65,356.527 1252.61,427.199L1252.61,132.129L1344.83,132.129L1344.83,-78.839C1330.42,-83.679 1320.05,-97.019 1320.05,-112.699C1320.05,-132.459 1336.51,-148.502 1356.79,-148.502C1377.06,-148.502 1393.52,-132.459 1393.52,-112.699C1393.52,-97.019 1383.15,-83.679 1368.74,-78.839L1368.74,155.44L1276.53,155.44L1276.53,463.963L1532.55,463.963C1544.8,463.963 1555.67,471.612 1559.53,482.944C1563.38,494.276 1559.36,506.742 1549.54,513.877C1549.54,513.877 1532.05,526.585 1506.99,544.793L1727.67,544.793L1727.67,296.829C1714.4,291.43 1705.06,278.656 1705.06,263.772C1705.06,244.012 1721.52,227.969 1741.79,227.969C1762.07,227.969 1778.53,244.012 1778.53,263.772C1778.53,278.656 1769.19,291.43 1755.92,296.829L1755.92,572.323L1469.09,572.323C1441.57,592.321 1411.44,614.208 1386.47,632.351L1905.24,632.351C1910.78,619.415 1923.88,610.313 1939.16,610.313C1959.43,610.313 1975.89,626.356 1975.89,646.116C1975.89,665.877 1959.43,681.92 1939.16,681.92C1923.88,681.92 1910.78,672.818 1905.24,659.881L1348.58,659.881C1338.29,667.354 1332.1,671.849 1332.1,671.849L1347.51,719.276L1755.92,719.276L1755.92,994.77C1769.19,1000.17 1778.53,1012.94 1778.53,1027.83C1778.53,1047.59 1762.07,1063.63 1741.79,1063.63C1721.52,1063.63 1705.06,1047.59 1705.06,1027.83C1705.06,1012.94 1714.4,1000.17 1727.67,994.77L1727.67,746.806L1356.46,746.806L1415.24,927.721C1418.96,939.186 1414.67,951.684 1404.62,958.656C1394.57,965.628 1381.05,965.482 1371.15,958.295C1371.15,958.295 1325.76,925.313 1276.53,889.544L1276.53,1001.02L1368.74,1001.02L1368.74,1235.3C1383.15,1240.13 1393.52,1253.48 1393.52,1269.15C1393.52,1288.92 1377.06,1304.96 1356.79,1304.96C1336.51,1304.96 1320.05,1288.92 1320.05,1269.15C1320.05,1253.48 1330.42,1240.13 1344.83,1235.3L1344.83,1024.33L1252.61,1024.33L1252.61,872.166C1216.99,846.287 1182.86,821.489 1165.8,809.095L1165.8,1236.36C1180.56,1241.01 1191.24,1254.52 1191.24,1270.43C1191.24,1290.19 1174.78,1306.24 1154.5,1306.24C1134.23,1306.24 1117.77,1290.19 1117.77,1270.43C1117.77,1255 1127.82,1241.83 1141.88,1236.8L1141.88,810.051L1054.7,873.391L1054.7,1024.33L962.485,1024.33L962.485,1235.3C976.896,1240.13 987.261,1253.48 987.261,1269.15C987.261,1288.92 970.801,1304.96 950.526,1304.96C930.252,1304.96 913.792,1288.92 913.792,1269.15C913.792,1253.48 924.156,1240.13 938.567,1235.3L938.567,1001.02L1030.78,1001.02L1030.78,890.769L937.843,958.295C927.95,965.482 914.429,965.628 904.376,958.656C894.322,951.683 890.032,939.185 893.758,927.72L952.541,746.806L576.995,746.806L576.995,994.77C590.268,1000.17 599.607,1012.94 599.607,1027.83C599.607,1047.59 583.147,1063.63 562.872,1063.63C542.598,1063.63 526.138,1047.59 526.138,1027.83C526.138,1012.94 535.476,1000.17 548.749,994.77L548.749,719.276L961.486,719.276L976.896,671.848L960.425,659.881ZM1154.5,217L1065.26,491.666L776.455,491.666L1010.1,661.419L920.855,936.084L1154.5,766.331L1388.14,936.084L1298.9,661.419L1532.55,491.666L1243.74,491.666L1154.5,217Z"/>
            </g>
            <g transform="matrix(0.221014,0,0,0.224561,808.135,591.2)">
                <path d="M1154.5,217L1243.74,491.666L1532.55,491.666L1298.9,661.419L1388.14,936.084L1154.5,766.331L920.855,936.084L1010.1,661.419L776.455,491.666L1065.26,491.666L1154.5,217Z"/>
            </g>
        </g>
    </g>
</svg>
