<?xml version="1.0" encoding="UTF-8" standalone="no"?>
<!DOCTYPE svg PUBLIC "-//W3C//DTD SVG 1.1//EN" "http://www.w3.org/Graphics/SVG/1.1/DTD/svg11.dtd">
<svg width="100%" height="100%" viewBox="0 0 13280 16130" version="1.1" xmlns="http://www.w3.org/2000/svg" xmlns:xlink="http://www.w3.org/1999/xlink" xml:space="preserve" xmlns:serif="http://www.serif.com/" style="fill-rule:evenodd;clip-rule:evenodd;stroke-linejoin:round;stroke-miterlimit:2;">
    <g transform="matrix(4.9353,0,0,4.9353,143.845,141.997)">
        <g>
            <path d="M1146.61,90.844C665.535,90.844 274.093,482.238 274.093,963.341L274.093,2241.79C274.093,2722.91 665.489,3114.31 1146.61,3114.31L1485.75,3114.31C1966.84,3114.31 2358.24,2722.88 2358.24,2241.79L2358.24,963.341C2358.24,482.254 1966.84,90.844 1485.74,90.844L1146.61,90.844ZM1485.72,3205.11L1146.61,3205.11C615.472,3205.11 183.386,2772.96 183.386,2241.82L183.355,963.341C183.355,432.221 615.456,0.12 1146.61,0.12L1485.75,0.12C2016.86,0.12 2448.97,432.221 2448.97,963.341L2448.97,2241.79C2448.94,2772.96 2016.83,3205.11 1485.72,3205.11Z" style="fill:rgb(3,4,4);"/>
            <path d="M582.491,1015.22C537.907,1015.22 501.664,1051.46 501.664,1096.02L501.664,1636.83C501.664,1681.42 537.907,1717.66 582.491,1717.66L2049.88,1717.66C2094.45,1717.66 2130.68,1681.42 2130.68,1636.83L2130.68,1096.05C2130.68,993.382 2004.55,1015.25 1914.88,1015.25C1876.81,1055.5 1802.08,1042.81 1727.16,1042.81C1702.69,1042.81 1679.79,1032.41 1663.54,1015.25L968.823,1015.25C930.718,1055.5 856.031,1042.81 781.097,1042.81C756.658,1042.81 733.728,1032.41 717.46,1015.25L582.491,1015.25L582.491,1015.22ZM2049.85,1808.38L582.491,1808.38C487.89,1808.38 410.94,1731.43 410.94,1636.83L410.94,1096.05C410.94,1001.48 487.89,924.528 582.491,924.528L741.591,924.528C759.829,924.528 776.219,935.424 783.344,952.091L902.97,952.091C910.095,935.424 926.485,924.528 944.722,924.528L1687.67,924.528C1705.92,924.528 1722.33,935.424 1729.37,952.091L1849.05,952.091C1856.16,935.424 1872.53,924.528 1890.75,924.528L2049.88,924.528C2144.47,924.528 2221.42,1001.48 2221.42,1096.05L2221.42,1636.86C2221.39,1731.46 2144.44,1808.38 2049.85,1808.38Z" style="fill:rgb(3,4,4);"/>
            <path d="M2448.94,1584.45C2481.39,1584.45 2541.62,1592.66 2541.62,1538.14L2541.62,1171.94C2541.62,1117.39 2481.45,1125.63 2448.94,1125.63L2448.94,1584.45ZM2495.27,1675.17C2434.85,1675.17 2358.24,1689.16 2358.24,1629.81L2358.24,1080.27C2358.24,1020.93 2434.88,1034.9 2495.27,1034.9C2570.83,1034.9 2632.36,1096.37 2632.36,1171.94L2632.36,1538.14C2632.33,1613.72 2570.83,1675.17 2495.27,1675.17Z" style="fill:rgb(3,4,4);"/>
            <path d="M137.062,1125.63C111.515,1125.63 90.723,1146.42 90.723,1171.94L90.723,1538.14C90.723,1592.65 150.913,1584.43 183.355,1584.45L183.355,1125.63L137.062,1125.63ZM228.724,1675.17L137.062,1675.17C61.498,1675.17 0,1613.72 0,1538.14L0,1171.94C0,1096.37 61.498,1034.9 137.062,1034.9C197.498,1034.9 274.093,1020.93 274.093,1080.27L274.093,1629.81C274.093,1654.85 253.81,1675.17 228.724,1675.17Z" style="fill:rgb(3,4,4);"/>
            <path d="M1730.42,952.045L1847.97,952.045L1847.97,778.386L1730.42,778.386L1730.42,952.045ZM1851.23,1042.78C1616.57,1042.78 1639.65,1049.29 1639.65,775.138C1639.65,666.655 1768.13,687.708 1851.23,687.708C1899.43,687.708 1938.68,726.953 1938.68,775.154L1938.68,955.338C1938.71,1003.55 1899.46,1042.78 1851.23,1042.78Z" style="fill:rgb(3,4,4);"/>
            <path d="M784.345,952.045L901.938,952.045L901.938,778.386L784.345,778.386L784.345,952.045ZM905.217,1042.78C670.537,1042.78 693.652,1049.32 693.652,775.138C693.652,666.655 822.126,687.708 905.217,687.708C953.449,687.708 992.662,726.953 992.662,775.154L992.662,955.338C992.662,1003.55 953.417,1042.78 905.217,1042.78Z" style="fill:rgb(3,4,4);"/>
            <g transform="matrix(1.4776,0,0,1.16914,-900.239,-204.206)">
                <path d="M1003.8,1111.55C1006.11,1109.24 1009.24,1107.95 1012.51,1107.95L1500,1108.58L1987.49,1107.95C1990.76,1107.95 1993.89,1109.24 1996.21,1111.55C1998.52,1113.86 1999.82,1116.99 1999.82,1120.26L1999.86,1567.4C1999.86,1574.07 1994.54,1579.53 1987.85,1579.71L1987.6,1579.71L1987.34,1579.72L1987.37,1579.72C1860.95,1583.01 1734.58,1586.3 1647.12,1587.97C1603.21,1588.81 1569.17,1589.24 1540.02,1589.47C1539.19,1589.64 1538.34,1589.74 1537.46,1589.74C1525.18,1589.73 1512.9,1589.72 1500,1589.68C1487.1,1589.72 1474.82,1589.73 1462.54,1589.74C1461.66,1589.74 1460.81,1589.64 1459.98,1589.47C1430.83,1589.24 1396.79,1588.81 1352.88,1587.97C1265.42,1586.3 1139.05,1583.01 1012.63,1579.72L1012.66,1579.72L1012.41,1579.71L1012.15,1579.71C1005.46,1579.53 1000.14,1574.07 1000.14,1567.4L1000.18,1120.26C1000.18,1116.99 1001.48,1113.86 1003.8,1111.55ZM1271.63,1319.26L1188.79,1434.92L1144.97,1496.09L1104.67,1552.36L1101.2,1557.21L1101.07,1557.38C1113.51,1557.71 1125.85,1558.02 1138.06,1558.33L1294.12,1340.46L1294.11,1340.45L1271.63,1319.26ZM1329.43,1373.69L1345.08,1351.92L1309.76,1318.66C1309.76,1318.66 1309.75,1318.65 1309.74,1318.64L1294.12,1340.46L1329.43,1373.69ZM1329.43,1373.69L1196.98,1557.97L1195.67,1559.78C1240.86,1560.9 1283.17,1561.9 1320.36,1562.69L1314.5,1562.53L1355.68,1398.43L1329.44,1373.7L1329.43,1373.69ZM1338.68,1563.07C1332.73,1562.95 1326.62,1562.82 1320.36,1562.69L1338.65,1563.2L1338.68,1563.07ZM1338.68,1563.07C1343.68,1563.17 1348.58,1563.27 1353.35,1563.36C1356.78,1563.42 1360.14,1563.49 1363.44,1563.55L1360.15,1563.46L1406.8,1376.05L1360.69,1330.56L1360.54,1330.42L1345.08,1351.92L1345.09,1351.93L1382.83,1387.46L1338.68,1563.07ZM1390.28,1564.01C1381.76,1563.87 1372.84,1563.72 1363.44,1563.55L1390.05,1564.22L1390.28,1564.01ZM1390.28,1564.01C1404.57,1564.23 1417.7,1564.41 1429.92,1564.56L1458.7,1537.62L1503.94,1474.69L1508.4,1468.49L1500.41,1460.91L1390.28,1564.01ZM1458.7,1537.62L1439.27,1564.66C1436.21,1564.63 1433.1,1564.59 1429.92,1564.56L1429.92,1564.56L1439.25,1564.74L1471.49,1561.94L1500.49,1534.7L1528.67,1561.72L1566.69,1560.57L1500.42,1498.26L1458.94,1537.4L1458.7,1537.62ZM1676.15,1235.11L1508.4,1468.49L1508.49,1468.58L1608.43,1561.65L1640.16,1561.57L1592.7,1374.62L1742.21,1235.25L1676.21,1235.11L1676.15,1235.11ZM1676.15,1235.11L1695.72,1207.9L1573.06,1208.01L1554.32,1133.27L1531.62,1133.24L1557.62,1235.34L1676.15,1235.11ZM1716.62,1178.81L1695.72,1207.9L1695.77,1207.9L1808.53,1207.86L1618.07,1387.52L1661.7,1561.64L1685.87,1561.12L1645.1,1398.56C1645.1,1398.56 1822.2,1231.49 1822.2,1231.49C1830.28,1223.89 1833.59,1210.6 1830.42,1198.52C1827.25,1186.44 1818.31,1178.29 1808.24,1178.29L1716.67,1178.81L1716.62,1178.81ZM1716.62,1178.81L1749.64,1132.88L1585.79,1133.09C1585.07,1133.22 1584.34,1133.31 1583.59,1133.31L1578.77,1133.3L1590.04,1178.82L1716.62,1178.81ZM1554.32,1133.27L1578.77,1133.3L1578.76,1133.28L1554.3,1133.18L1554.32,1133.27ZM1451.06,1204.49L1502.3,1133.2L1531.62,1133.24L1531.61,1133.18L1502.28,1133.18L1469.34,1132.52L1451.08,1204.41L1451.06,1204.49ZM1451.06,1204.49L1428.94,1235.25L1443.27,1235.33L1451.06,1204.49ZM1369.46,1235.28L1325.02,1297.32L1325.08,1297.38L1360.54,1330.42L1371.72,1314.86L1428.94,1235.25L1428.89,1235.25L1369.47,1235.28L1369.46,1235.28ZM1369.46,1235.28L1388.99,1208.01L1351.32,1208.01L1351.32,1208.01L1331.79,1235.28L1369.46,1235.28ZM1422.07,1133.3L1442.52,1133.28L1411.07,1177.19L1411.07,1177.19L1411.07,1177.19L1410.68,1178.74L1409.96,1178.74L1409.96,1178.74C1409.96,1178.74 1409.96,1178.74 1409.96,1178.74L1388.99,1208.01L1388.99,1208.01L1427.62,1207.95L1446.36,1133.37L1442.53,1133.28L1422.07,1133.3L1422.07,1133.3ZM1422.07,1133.3L1416.41,1133.31C1415.66,1133.31 1414.93,1133.22 1414.21,1133.09L1404.99,1133.08L1372.29,1178.74C1372.29,1178.74 1372.29,1178.74 1372.29,1178.74C1384.71,1178.88 1397.46,1178.61 1409.96,1178.74L1411.07,1177.19L1422.07,1133.3ZM1271.63,1319.26C1271.63,1319.26 1276.75,1312.1 1281.14,1305.99L1287.26,1297.45C1286.23,1296.49 1192.25,1207.93 1192.25,1207.93L1350.92,1208.01L1351.32,1208.01L1372.29,1178.74C1370.99,1178.74 1192.88,1178.88 1192.88,1178.88C1182.81,1178.88 1173.87,1187.03 1170.7,1199.11C1167.53,1211.19 1170.84,1224.48 1178.91,1232.09L1271.63,1319.26ZM1271.63,1319.26L1277.18,1311.52C1274.15,1315.73 1271.63,1319.26 1271.63,1319.26L1271.63,1319.26ZM1277.18,1311.52C1281.68,1305.25 1287.27,1297.46 1287.27,1297.46C1287.26,1297.46 1284.41,1301.43 1281.14,1305.99L1277.18,1311.52ZM1287.27,1297.46C1287.27,1297.46 1309.09,1318.03 1309.74,1318.64L1310.56,1317.5L1325.02,1297.32L1302.38,1276.34L1302.38,1276.34L1287.26,1297.45C1287.26,1297.45 1287.27,1297.46 1287.27,1297.46ZM1331.79,1235.28L1258.49,1235.29L1302.38,1276.34L1331.79,1235.28ZM1840.54,1542L1828.03,1559.19C1832.48,1559.08 1836.97,1558.97 1841.47,1558.85L1856.96,1537.57L1975.22,1375.1L1975.22,1357.01L1840.54,1542Z"/>
            </g>
        </g>
    </g>
</svg>
