<?xml version="1.0" encoding="UTF-8" standalone="no"?>
<!DOCTYPE svg PUBLIC "-//W3C//DTD SVG 1.1//EN" "http://www.w3.org/Graphics/SVG/1.1/DTD/svg11.dtd">
<svg width="100%" height="100%" viewBox="0 0 17288 17288" version="1.1" xmlns="http://www.w3.org/2000/svg" xmlns:xlink="http://www.w3.org/1999/xlink" xml:space="preserve" xmlns:serif="http://www.serif.com/" style="fill-rule:evenodd;clip-rule:evenodd;stroke-linejoin:round;stroke-miterlimit:2;">
    <g transform="matrix(4.16667,0,0,4.16667,0,0)">
        <path d="M1972.66,141.83L2399.47,14.231L2290.44,285.819C2288.17,291.474 2287.95,297.392 2289.54,302.719C2291.09,307.957 2294.46,312.716 2299.38,316.161C2304.33,319.627 2310.04,321.17 2315.6,320.838C2321.11,320.507 2326.55,318.296 2331.05,314.266C2352.74,294.827 2374.72,271.397 2396.14,248.572C2415.02,228.445 2433.49,208.765 2452.29,191.274L2476.4,181.459L2921.55,168.676L2746.06,402.64C2742.41,407.508 2740.67,413.175 2740.82,418.753C2740.96,424.087 2743.04,429.542 2747,434.275C2750.93,438.955 2755.96,441.93 2761.25,443.014C2766.61,444.112 2772.47,443.364 2777.95,440.592C2805.01,426.898 2831.81,410.269 2857.91,394.073C2881.61,379.364 2904.79,364.979 2926.97,353.226L2952.66,349.905L3386.23,452.834L3155.87,633.629C3151,637.454 3147.84,642.386 3146.59,647.59L3146.72,647.621C3145.45,652.972 3145.99,658.837 3148.57,664.351L3148.45,664.407C3151.03,669.909 3155.13,674.083 3160,676.529L3160.06,676.413C3165.04,678.901 3170.9,679.719 3176.83,678.473C3205.05,672.538 3235.93,663.191 3265.99,654.091C3291.91,646.243 3317.24,638.575 3343.38,632.577L3369.07,636.042L3761.17,847.653L3491.88,962.661C3486.33,965.031 3482.06,968.983 3479.47,973.753C3476.86,978.584 3475.88,984.423 3476.95,990.497C3478.02,996.543 3480.88,1001.63 3484.89,1005.19C3488.98,1008.81 3494.37,1011.07 3500.42,1011.4C3530.71,1013.04 3562.29,1012.02 3593.02,1011.04C3620.66,1010.15 3647.66,1009.28 3673.32,1010.21L3697.28,1020.17L4021.28,1326.07L3731.56,1367.44C3725.53,1368.3 3720.32,1371.05 3716.54,1375.04C3712.86,1378.92 3710.47,1384.22 3709.94,1390.31C3709.4,1396.46 3710.84,1402.14 3713.8,1406.62C3716.83,1411.21 3721.45,1414.81 3727.18,1416.69C3755.41,1425.93 3786.43,1433.2 3816.64,1440.27C3843.08,1446.46 3868.94,1452.51 3894.38,1460.33L3914.88,1476.2L4148.65,1855.52L3858.15,1820.5C3852,1819.76 3846.21,1821.05 3841.54,1823.92C3836.92,1826.76 3833.21,1831.24 3831.15,1836.92C3829.04,1842.73 3828.98,1848.65 3830.72,1853.86C3832.42,1858.98 3835.96,1863.61 3841.05,1866.93C3866.4,1883.48 3894.26,1898.39 3921.37,1912.9C3945.45,1925.79 3968.98,1938.39 3991.29,1952.37L4007.16,1973.01L4134.77,2399.82L3863.18,2290.79C3857.52,2288.52 3851.6,2288.3 3846.28,2289.88C3841.04,2291.44 3836.28,2294.8 3832.83,2299.72C3829.37,2304.68 3827.83,2310.38 3828.16,2315.95C3828.49,2321.46 3830.7,2326.9 3834.73,2331.4C3854.17,2353.09 3877.6,2375.07 3900.41,2396.48C3920.55,2415.36 3940.23,2433.83 3957.72,2452.64L3967.54,2476.75L3980.32,2921.9L3746.36,2746.4C3741.49,2742.75 3735.83,2741.02 3730.25,2741.17C3724.92,2741.31 3719.46,2743.38 3714.73,2747.35C3710.05,2751.28 3707.07,2756.31 3705.99,2761.59C3704.89,2766.96 3705.64,2772.81 3708.41,2778.3C3722.1,2805.37 3738.74,2832.17 3754.94,2858.28C3769.64,2881.97 3784.02,2905.15 3795.77,2927.31L3799.09,2953.01L3696.16,3386.58L3515.38,3156.23C3511.55,3151.36 3506.62,3148.19 3501.42,3146.94L3501.39,3147.08C3496.03,3145.8 3490.17,3146.35 3484.66,3148.92L3484.6,3148.8C3479.08,3151.39 3474.89,3155.52 3472.45,3160.41C3470.02,3165.26 3469.26,3171.11 3470.53,3177.19C3476.47,3205.4 3485.81,3236.28 3494.91,3266.34C3502.76,3292.25 3510.42,3317.59 3516.42,3343.72L3512.96,3369.42L3301.34,3761.52L3186.34,3492.24C3183.97,3486.69 3180.02,3482.42 3175.25,3479.84C3170.42,3477.22 3164.58,3476.24 3158.51,3477.32C3152.46,3478.38 3147.37,3481.24 3143.82,3485.25C3140.2,3489.34 3137.93,3494.73 3137.61,3500.77C3135.96,3531.07 3136.98,3562.64 3137.96,3593.38C3138.85,3621.01 3139.72,3648.01 3138.79,3673.67L3128.83,3697.63L2822.93,4021.62L2781.56,3731.94C2780.7,3725.9 2777.95,3720.69 2773.96,3716.91C2770.08,3713.24 2764.79,3710.84 2758.69,3710.31C2752.46,3709.76 2746.74,3711.21 2742.25,3714.17C2737.77,3717.12 2734.23,3721.74 2732.32,3727.55C2723.07,3755.78 2715.8,3786.79 2708.73,3817.01C2702.54,3843.44 2696.49,3869.28 2688.67,3894.73L2672.79,3915.23L2293.48,4149L2328.5,3858.52C2329.24,3852.38 2327.94,3846.59 2325.07,3841.91C2322.24,3837.3 2317.75,3833.58 2312.07,3831.52C2306.27,3829.41 2300.34,3829.36 2295.13,3831.09C2290.02,3832.8 2285.38,3836.33 2282.07,3841.42C2265.52,3866.77 2250.61,3894.62 2236.09,3921.74C2223.21,3945.8 2210.62,3969.32 2196.63,3991.64L2175.99,4007.52L1749.18,4135.11L1858.21,3863.53C1860.48,3857.87 1860.7,3851.95 1859.11,3846.63C1857.56,3841.39 1854.19,3836.63 1849.27,3833.19C1844.32,3829.72 1838.61,3828.18 1833.05,3828.51C1827.54,3828.84 1822.09,3831.05 1817.59,3835.08C1795.91,3854.52 1773.93,3877.95 1752.51,3900.77C1733.63,3920.9 1715.16,3940.58 1696.36,3958.07L1672.25,3967.89L1227.1,3980.67L1402.59,3746.71C1406.24,3741.84 1407.98,3736.17 1407.83,3730.59C1407.69,3725.26 1405.61,3719.8 1401.65,3715.07C1397.72,3710.39 1392.69,3707.42 1387.4,3706.33C1382.04,3705.23 1376.18,3705.98 1370.7,3708.75C1343.64,3722.45 1316.84,3739.08 1290.74,3755.27C1267.04,3769.98 1243.86,3784.37 1221.68,3796.12L1195.99,3799.44L762.421,3696.51L992.776,3515.72C997.648,3511.89 1000.81,3506.96 1002.06,3501.76L1001.93,3501.72C1003.2,3496.37 1002.66,3490.51 1000.08,3485L1000.2,3484.94C997.624,3479.44 993.516,3475.26 988.648,3472.82L988.592,3472.93C983.61,3470.44 977.75,3469.63 971.816,3470.87C943.6,3476.81 912.724,3486.16 882.663,3495.26C856.74,3503.1 831.409,3510.77 805.274,3516.77L779.576,3513.3L387.472,3301.69L656.769,3186.69C662.32,3184.32 666.595,3180.36 669.177,3175.59C671.79,3170.76 672.768,3164.92 671.696,3158.85C670.631,3152.8 667.767,3147.72 663.756,3144.16C659.669,3140.54 654.276,3138.27 648.235,3137.95C617.937,3136.31 586.361,3137.32 555.626,3138.31C527.994,3139.2 500.994,3140.06 475.331,3139.14L451.366,3129.17L127.372,2823.27L417.087,2781.91C423.118,2781.05 428.329,2778.3 432.114,2774.3C435.782,2770.43 438.179,2765.13 438.715,2759.03C439.251,2752.88 437.807,2747.21 434.85,2742.73C431.823,2738.14 427.201,2734.54 421.47,2732.66C393.24,2723.41 362.218,2716.15 332.008,2709.08C305.566,2702.89 279.712,2696.84 254.265,2689.02L233.766,2673.14L0,2293.83L290.501,2328.85C296.645,2329.59 302.432,2328.3 307.111,2325.42C311.728,2322.59 315.436,2318.1 317.503,2312.42C319.615,2306.62 319.666,2300.69 317.932,2295.49C316.227,2290.37 312.686,2285.74 307.599,2282.41C282.246,2265.87 254.392,2250.96 227.276,2236.44C203.203,2223.56 179.674,2210.96 157.365,2196.98L141.486,2176.33L13.88,1749.53L285.474,1858.56C291.128,1860.83 297.047,1861.05 302.373,1859.46C307.608,1857.91 312.369,1854.54 315.815,1849.62C319.282,1844.67 320.824,1838.97 320.492,1833.4C320.164,1827.89 317.951,1822.44 313.923,1817.95C294.485,1796.26 271.054,1774.28 248.236,1752.87C228.105,1733.98 208.42,1715.51 190.928,1696.71L181.113,1672.6L168.326,1227.44L402.289,1402.94C407.158,1406.59 412.822,1408.33 418.4,1408.18C423.734,1408.04 429.189,1405.96 433.922,1402C438.602,1398.07 441.58,1393.04 442.663,1387.75C443.762,1382.39 443.013,1376.53 440.242,1371.05C426.545,1343.98 409.912,1317.18 393.711,1291.06C379.007,1267.37 364.628,1244.2 352.878,1222.03L349.557,1196.34L452.484,762.769L633.274,993.118C637.098,997.989 642.026,1001.15 647.232,1002.4L647.264,1002.27C652.615,1003.54 658.479,1003 663.99,1000.43L664.047,1000.55C669.571,997.957 673.756,993.826 676.2,988.935C678.628,984.082 679.394,978.232 678.117,972.162C672.185,943.948 662.837,913.069 653.738,883.008C645.893,857.092 638.226,831.76 632.23,805.621L635.694,779.925L847.303,387.825L962.309,657.102C964.679,662.653 968.629,666.928 973.398,669.51C978.226,672.121 984.066,673.102 990.139,672.03C996.187,670.963 1001.27,668.106 1004.82,664.096C1008.45,660.006 1010.72,654.614 1011.04,648.574C1012.69,618.278 1011.67,586.705 1010.69,555.971C1009.8,528.34 1008.93,501.341 1009.86,475.679L1019.82,451.713L1325.72,127.722L1367.09,417.41C1367.95,423.441 1370.69,428.652 1374.69,432.434C1378.57,436.108 1383.86,438.502 1389.96,439.037C1396.19,439.581 1401.91,438.141 1406.41,435.179C1410.88,432.23 1414.43,427.61 1416.33,421.801C1425.58,393.571 1432.85,362.551 1439.92,332.335C1446.11,305.906 1452.16,280.062 1459.98,254.613L1475.86,234.114L1855.17,0.351L1820.15,290.824C1819.41,296.968 1820.71,302.755 1823.58,307.436C1826.41,312.051 1830.9,315.761 1836.58,317.826C1842.38,319.938 1848.31,319.989 1853.52,318.254C1858.63,316.55 1863.26,313.015 1866.58,307.927C1883.13,282.58 1898.04,254.727 1912.56,227.607C1925.44,203.549 1938.03,180.029 1952.02,157.711L1972.66,141.83ZM2274.22,128.591L2007.35,208.377C1997.63,224.854 1987.75,243.299 1977.7,262.081C1962.27,290.9 1946.42,320.503 1928.54,347.891C1915.85,367.331 1897.5,381.056 1876.79,387.955C1856.15,394.83 1833.35,394.858 1811.63,386.952C1789.77,379.001 1772.23,364.257 1760.81,345.665C1749.43,327.135 1744.22,304.932 1746.98,281.989L1763.72,143.138L1526.79,289.16C1521.67,307.528 1516.87,328.033 1511.98,348.909C1504.6,380.458 1497.01,412.852 1486.66,444.439C1479.43,466.465 1465.25,484.461 1447,496.505C1428.75,508.539 1406.72,514.498 1383.78,512.488C1360.69,510.464 1339.94,500.736 1324.04,485.678C1308.27,470.736 1297.49,450.599 1294.21,427.631L1274.47,289.413L1083.34,491.851C1083.13,511.392 1083.8,532.244 1084.48,553.487C1085.53,586.102 1086.6,619.603 1084.84,652.158C1083.58,675.377 1074.59,696.423 1060.14,712.717C1045.63,729.098 1025.81,740.593 1003.01,744.62C980.232,748.64 957.762,744.655 938.634,734.303C919.443,723.913 903.762,707.194 894.627,685.801L839.745,557.293L707.541,802.257C712.287,820.633 718.411,840.868 724.647,861.472C733.92,892.11 743.445,923.579 750.47,956.976C755.223,979.576 751.953,1002.17 742.201,1021.68C732.475,1041.14 716.341,1057.3 695.344,1067.1L695.344,1067.24C674.307,1077.05 651.544,1079.04 630.403,1073.99L630.403,1073.84C609.124,1068.76 589.673,1056.73 575.415,1038.57L489.168,928.676L424.871,1199.52C434.573,1216.81 445.456,1234.35 456.538,1252.2C473.8,1280.02 491.518,1308.57 506.242,1337.68C516.691,1358.33 519.387,1380.99 515.016,1402.31C510.627,1423.69 499.203,1443.52 481.444,1458.42C463.729,1473.27 442.201,1481.04 420.308,1481.63C398.666,1482.22 376.854,1475.6 358.286,1461.67L246.505,1377.82L254.5,1656.15C268.189,1670.15 283.422,1684.44 298.937,1699C322.355,1720.97 346.399,1743.52 368.955,1768.69C384.474,1786.01 392.992,1807.22 394.288,1828.9C395.584,1850.52 389.666,1872.56 376.332,1891.61C362.973,1910.69 344.204,1923.82 323.335,1930.03C302.559,1936.21 279.751,1935.46 258.221,1926.82L128.587,1874.78L208.375,2141.65C224.851,2151.37 243.301,2161.25 262.095,2171.31C290.91,2186.73 320.512,2202.58 347.907,2220.46C367.347,2233.15 381.072,2251.49 387.978,2272.21C394.852,2292.85 394.879,2315.65 386.973,2337.37C379.019,2359.23 364.279,2376.77 345.685,2388.19C327.154,2399.57 304.953,2404.78 282.011,2402.02L143.135,2385.27L289.155,2622.21C307.528,2627.33 328.038,2632.13 348.924,2637.01C380.471,2644.4 412.862,2651.98 444.453,2662.33C466.558,2669.57 484.549,2683.71 496.519,2701.84C508.565,2720.1 514.527,2742.18 512.509,2765.21C510.485,2788.3 500.755,2809.05 485.702,2824.95C470.761,2840.73 450.622,2851.51 427.652,2854.78L289.409,2874.52L491.849,3065.66C511.386,3065.87 532.243,3065.2 553.488,3064.52C586.103,3063.47 619.606,3062.39 652.162,3064.15C675.379,3065.41 696.422,3074.4 712.722,3088.85C729.102,3103.36 740.602,3123.17 744.631,3145.98C748.652,3168.76 744.667,3191.23 734.315,3210.36C723.925,3229.55 707.212,3245.23 685.813,3254.37L557.289,3309.26L802.251,3441.46C820.627,3436.71 840.861,3430.59 861.471,3424.35C892.103,3415.08 923.573,3405.55 956.974,3398.52C979.71,3393.74 1002.3,3396.96 1021.68,3406.64L1021.68,3406.79C1041.14,3416.52 1057.3,3432.65 1067.1,3453.64L1067.24,3453.64C1077.05,3474.68 1079.03,3497.45 1073.99,3518.59L1073.84,3518.59C1068.76,3539.87 1056.74,3559.32 1038.56,3573.58L928.672,3659.83L1199.52,3724.13C1216.8,3714.43 1234.35,3703.54 1252.22,3692.45C1280.03,3675.19 1308.57,3657.48 1337.67,3642.76C1358.32,3632.31 1380.99,3629.62 1402.3,3633.98C1423.68,3638.37 1443.51,3649.79 1458.41,3667.55C1473.26,3685.27 1481.03,3706.8 1481.62,3728.69C1482.21,3750.34 1475.59,3772.14 1461.66,3790.71L1377.81,3902.5L1656.14,3894.5C1670.14,3880.82 1684.43,3865.59 1698.98,3850.08C1720.95,3826.65 1743.51,3802.61 1768.68,3780.05C1786,3764.53 1807.21,3756.01 1828.88,3754.72C1850.51,3753.42 1872.55,3759.34 1891.6,3772.67C1910.68,3786.03 1923.81,3804.79 1930.02,3825.67C1936.2,3846.45 1935.45,3869.25 1926.81,3890.78L1874.77,4020.41L2141.64,3940.63C2151.36,3924.15 2161.24,3905.7 2171.29,3886.92C2186.72,3858.1 2202.57,3828.5 2220.45,3801.11C2233.14,3781.67 2251.49,3767.95 2272.2,3761.05C2292.84,3754.17 2315.64,3754.15 2337.36,3762.05C2359.22,3770 2376.76,3784.75 2388.18,3803.34C2399.56,3821.87 2404.77,3844.07 2402.01,3867.02L2385.27,4005.87L2622.2,3859.85C2627.32,3841.48 2632.12,3820.97 2637,3800.1C2644.39,3768.55 2651.98,3736.15 2662.33,3704.57C2669.56,3682.54 2683.74,3664.54 2701.99,3652.5C2720.24,3640.46 2742.27,3634.5 2765.21,3636.52C2788.3,3638.54 2809.05,3648.27 2824.95,3663.33C2840.73,3678.27 2851.5,3698.41 2854.78,3721.37L2874.52,3859.59L3065.65,3657.15C3065.86,3637.61 3065.19,3616.76 3064.51,3595.52C3063.46,3562.9 3062.39,3529.4 3064.15,3496.85C3065.41,3473.63 3074.41,3452.58 3088.85,3436.29C3103.37,3419.91 3123.18,3408.41 3145.98,3404.39C3168.76,3400.37 3191.23,3404.35 3210.36,3414.7C3229.55,3425.09 3245.23,3441.81 3254.37,3463.2L3309.25,3591.71L3441.45,3346.75C3436.71,3328.37 3430.58,3308.14 3424.35,3287.53C3415.07,3256.9 3405.55,3225.43 3398.52,3192.03C3393.77,3169.43 3397.04,3146.83 3406.79,3127.33C3416.52,3107.87 3432.65,3091.7 3453.65,3081.91L3453.65,3081.76C3474.69,3071.95 3497.45,3069.97 3518.59,3075.02L3518.59,3075.16C3539.87,3080.25 3559.32,3092.28 3573.58,3110.44L3659.83,3220.33L3724.12,2949.48C3714.42,2932.2 3703.54,2914.66 3692.45,2896.8C3675.19,2868.98 3657.47,2840.43 3642.75,2811.33C3632.3,2790.67 3629.61,2768.01 3633.98,2746.7C3638.37,2725.31 3649.79,2705.48 3667.55,2690.59C3685.26,2675.74 3706.79,2667.97 3728.69,2667.37C3750.33,2666.79 3772.14,2673.41 3790.71,2687.34L3902.49,2771.18L3894.49,2492.85C3880.8,2478.85 3865.57,2464.56 3850.06,2450.01C3826.64,2428.04 3802.59,2405.48 3780.04,2380.31C3764.52,2363 3756,2341.78 3754.71,2320.11C3753.41,2298.49 3759.33,2276.44 3772.66,2257.4C3786.02,2238.32 3804.79,2225.18 3825.66,2218.98C3846.44,2212.8 3869.24,2213.54 3890.77,2222.19L4020.41,2274.23L3940.62,2007.36C3924.14,1997.64 3905.69,1987.76 3886.9,1977.7C3858.08,1962.27 3828.48,1946.43 3801.09,1928.55C3781.65,1915.86 3767.92,1897.51 3761.02,1876.79C3754.14,1856.16 3754.11,1833.35 3762.02,1811.63C3769.97,1789.78 3784.72,1772.24 3803.31,1760.81C3821.84,1749.43 3844.04,1744.22 3866.98,1746.99L4005.86,1763.73L3859.84,1526.8C3841.47,1521.68 3820.95,1516.88 3800.07,1511.99C3768.52,1504.61 3736.13,1497.02 3704.54,1486.67C3682.44,1479.43 3664.44,1465.3 3652.47,1447.16C3640.43,1428.91 3634.47,1406.82 3636.48,1383.79C3638.51,1360.7 3648.24,1339.95 3663.29,1324.06C3678.23,1308.28 3698.37,1297.5 3721.34,1294.22L3859.58,1274.48L3657.15,1083.35C3637.61,1083.14 3616.75,1083.81 3595.51,1084.49C3562.89,1085.54 3529.39,1086.61 3496.83,1084.85C3473.62,1083.59 3452.57,1074.6 3436.27,1060.16C3419.89,1045.64 3408.39,1025.83 3404.36,1003.03C3400.34,980.246 3404.33,957.773 3414.68,938.644C3425.07,919.456 3441.78,903.775 3463.18,894.637L3591.7,839.748L3346.74,707.547C3328.36,712.289 3308.13,718.415 3287.52,724.655C3256.89,733.929 3225.42,743.454 3192.02,750.481C3169.29,755.26 3146.69,752.043 3127.31,742.361L3127.31,742.214C3107.85,732.489 3091.69,716.358 3081.89,695.361L3081.75,695.361C3071.94,674.319 3069.96,651.558 3075,630.415L3075.15,630.415C3080.23,609.139 3092.25,589.684 3110.43,575.426L3220.32,489.172L2949.47,424.873C2932.19,434.579 2914.64,445.468 2896.77,456.556C2868.96,473.811 2840.42,491.527 2811.32,506.247C2790.67,516.692 2768,519.39 2746.69,515.02C2725.31,510.633 2705.48,499.211 2690.58,481.454C2675.74,463.741 2667.96,442.21 2667.37,420.316C2666.78,398.67 2673.4,376.858 2687.33,358.293L2771.18,246.508L2492.85,254.501C2478.85,268.186 2464.56,283.418 2450.01,298.928C2428.04,322.351 2405.48,346.395 2380.31,368.955C2362.99,384.471 2341.78,392.991 2320.1,394.288C2298.48,395.585 2276.44,389.664 2257.39,376.332C2238.31,362.975 2225.18,344.208 2218.97,323.337C2212.79,302.558 2213.54,279.752 2222.18,258.222L2274.22,128.591Z" style="fill:rgb(35,31,32);"/>
        <path d="M2074.32,511.002C2506.12,511.002 2897.03,686.027 3180,968.995C3462.98,1251.97 3638,1642.89 3638,2074.67C3638,2506.46 3462.97,2897.38 3180,3180.35C2897.03,3463.32 2506.12,3638.34 2074.32,3638.34C1642.54,3638.34 1251.61,3463.32 968.648,3180.35C685.678,2897.38 510.654,2506.46 510.654,2074.67C510.654,1642.88 685.678,1251.96 968.648,968.995C1251.61,686.027 1642.54,511.002 2074.32,511.002ZM3127.75,1021.25C2858.16,751.662 2485.71,584.915 2074.32,584.915C1662.94,584.915 1290.49,751.662 1020.9,1021.25C751.315,1290.84 584.567,1663.28 584.567,2074.67C584.567,2486.06 751.315,2858.5 1020.9,3128.09C1290.49,3397.68 1662.94,3564.43 2074.32,3564.43C2485.72,3564.43 2858.16,3397.68 3127.75,3128.09C3397.34,2858.5 3564.08,2486.06 3564.08,2074.67C3564.08,1663.28 3397.34,1290.84 3127.75,1021.25Z" style="fill:rgb(35,31,32);"/>
        <g transform="matrix(5.0028,0,0,5.0028,1302.36,1342.88)">
            <g transform="matrix(0.281456,0,0,0.288778,-170.601,-20.2506)">
                <path d="M1174.81,210.731L1259.34,470.9L1532.55,470.9C1541.73,470.9 1549.88,476.634 1552.77,485.128C1555.66,493.622 1552.64,502.966 1545.28,508.315L1323.79,669.237L1408.45,929.815C1411.24,938.409 1408.03,947.777 1400.49,953.003C1392.96,958.23 1382.82,958.12 1375.41,952.733C1375.41,952.733 1203.26,827.661 1154.5,792.231L933.589,952.733C926.173,958.12 916.038,958.23 908.502,953.003C900.967,947.777 897.751,938.409 900.543,929.815L985.211,669.237L763.721,508.315C756.36,502.966 753.342,493.622 756.233,485.128C759.124,476.634 767.273,470.9 776.455,470.9C776.455,470.9 1049.66,470.9 1049.66,470.9L1134.19,210.731C1136.99,202.1 1145.21,196.234 1154.5,196.234C1163.79,196.234 1172.01,202.1 1174.81,210.731ZM1154.5,217L1065.26,491.666L776.455,491.666L1010.1,661.419L920.855,936.084L1154.5,766.331L1388.14,936.084L1298.9,661.419L1532.55,491.666L1243.74,491.666L1154.5,217Z"/>
            </g>
            <g transform="matrix(0.221014,0,0,0.224561,-100.82,18.7728)">
                <path d="M1154.5,217L1243.74,491.666L1532.55,491.666L1298.9,661.419L1388.14,936.084L1154.5,766.331L920.855,936.084L1010.1,661.419L776.455,491.666L1065.26,491.666L1154.5,217Z"/>
            </g>
        </g>
    </g>
</svg>
